<?xml version="1.0" standalone="no"?>
<!DOCTYPE svg PUBLIC "-//W3C//DTD SVG 1.1//EN" "http://www.w3.org/Graphics/SVG/1.1/DTD/svg11.dtd" >
<svg xmlns="http://www.w3.org/2000/svg">
<metadata>
Created by FontPrep 20130207 at Thu Jun  6 15:54:14 2013
 By Matt
Copyright 1990-1998 Bitstream Inc.  All rights reserved.
</metadata>
<defs>
<font id="055d5469f7bae20fed169a781d5e1686" >
  <font-face 
    font-family="Square721BT-BoldExtended"
    font-weight="400"
    font-stretch="expanded"
    units-per-em="2048"
    panose-1="2 11 9 7 3 5 2 6 2 3"
    ascent="1556"
    descent="-492"
    x-height="1053"
    cap-height="1489"
    bbox="-342 -483 3619 1972"
    underline-thickness="250"
    underline-position="-98"
    unicode-range="U+0020-F002"
  />
<missing-glyph horiz-adv-x="1229" 
d="M217 -248h795v1577h-795v-1577zM102 -362v1806h1024v-1806h-1024z" />
    <glyph glyph-name=".notdef" horiz-adv-x="1229" 
d="M217 -248h795v1577h-795v-1577zM102 -362v1806h1024v-1806h-1024z" />
    <glyph glyph-name=".null" horiz-adv-x="0" 
 />
    <glyph glyph-name="nonmarkingreturn" horiz-adv-x="999" 
 />
    <glyph glyph-name="space" unicode=" " horiz-adv-x="999" 
 />
    <glyph glyph-name="exclam" unicode="!" horiz-adv-x="999" 
d="M711 0h-422v422h422v-422zM289 1489h422v-373l-21 -512h-387l-14 512v373z" />
    <glyph glyph-name="quotedbl" unicode="&#x22;" horiz-adv-x="713" 
d="M76 1438h219v-561h-219v561zM416 1438h223v-561h-223v561z" />
    <glyph glyph-name="numbersign" unicode="#" horiz-adv-x="1575" 
d="M684 1466h250l-139 -393h235l141 393h250l-139 -393h270l-86 -231h-268l-80 -230h277l-84 -231h-275l-141 -393h-250l139 393h-235l-141 -393h-250l139 393h-274l86 231h270l82 230h-283l86 231h279zM707 842l-82 -232h245l82 232h-245z" />
    <glyph glyph-name="dollar" unicode="$" horiz-adv-x="2001" 
d="M887 1176h-189q-108 0 -149 -26t-41 -82t32 -84t99 -34l248 -22v248zM1319 326q149 0 149 129q0 61 -39 88.5t-157 38.5l-170 16v-272h217zM514 455q0 -75 34 -102t140 -27h199v290l-330 31q-254 23 -340 108.5t-86 310.5t114.5 322t413.5 97h228v168h215v-168h252
q469 0 469 -412h-393v8q0 54 -37.5 75.5t-139.5 21.5h-151v-269l325 -28q224 -20 328.5 -122.5t104.5 -307.5t-88 -308q-68 -78 -169.5 -110.5t-328.5 -32.5h-172v-209h-215v209h-176q-223 0 -335 28t-164 88t-73.5 145.5t-21.5 217.5v21l399 -1q-2 -16 -2 -44z" />
    <glyph glyph-name="percent" unicode="%" horiz-adv-x="2636" 
d="M2220 897q148 0 215.5 -78t67.5 -250v-268q0 -165 -69.5 -242t-217.5 -77h-395q-161 0 -229 73.5t-68 245.5v268q0 173 68 250.5t218 77.5h410zM2087 674h-152q-87 0 -121 -37.5t-34 -136.5v-129q0 -92 32.5 -128t122.5 -36h152q90 0 125 36.5t35 127.5v129
q0 97 -34.5 135.5t-125.5 38.5zM1167 -18h-192l498 1525h190zM829 1507q148 0 215.5 -78t67.5 -249v-271q0 -165 -69 -242t-218 -77h-395q-161 0 -229 73.5t-68 245.5v271q0 172 68 249.5t219 77.5h409zM696 1284h-151q-87 0 -121.5 -37.5t-34.5 -136.5v-129q0 -92 33 -129
t123 -37h151q90 0 125 37t35 129v129q0 97 -34 135.5t-126 38.5z" />
    <glyph glyph-name="ampersand" unicode="&#x26;" horiz-adv-x="2134" 
d="M551 551v-98q0 -85 48 -116.5t183 -31.5h650l-687 365q-34 18 -80 18t-80 -36.5t-34 -100.5zM1927 563q0 -46 -24 -133l272 -151l-129 -285l-256 137q-66 -81 -166 -114t-326 -33h-516q-353 0 -496 88t-143 299v192q0 140 76 211.5t232 79.5q-76 45 -106 92.5t-30 122.5
v166q0 157 85 215.5t399 58.5h428q343 0 454 -68.5t111 -248.5v-184h-381l2 39q0 84 -39.5 116.5t-146.5 32.5h-383q-57 0 -88 -23t-31 -59q0 -64 57 -96l760 -397q10 38 10 114l2 45l-1 27h374v-244z" />
    <glyph glyph-name="quotesingle" unicode="'" horiz-adv-x="371" 
d="M76 1438h219v-561h-219v561z" />
    <glyph glyph-name="parenleft" unicode="(" horiz-adv-x="979" 
d="M770 342q34 0 94 6v-368h-209q-241 0 -355 110t-114 344v668q0 207 109.5 306t339.5 99h229v-368q-58 6 -96 6q-89 0 -124.5 -35.5t-35.5 -124.5v-502q0 -81 34.5 -111t127.5 -30z" />
    <glyph glyph-name="parenright" unicode=")" horiz-adv-x="979" 
d="M227 1145q-38 0 -96 -6v368h227q231 0 340 -99t109 -306v-668q0 -235 -113 -344.5t-354 -109.5h-209l1 368q60 -6 91 -6q93 0 127.5 30t34.5 111v502q0 89 -35 124.5t-123 35.5z" />
    <glyph glyph-name="asterisk" unicode="*" horiz-adv-x="1493" 
d="M1217 1157v-229l-297 18v193zM274 928v229l299 -18v-193zM412 1395l198 112l131 -266l-163 -96zM1079 1395l-164 -250l-165 96l133 266zM1079 692l-196 -112l-133 266l165 96zM412 692l166 250l163 -96l-131 -266z" />
    <glyph glyph-name="plus" unicode="+" horiz-adv-x="1706" 
d="M735 1221h238v-494h479v-231h-479v-496h-238v496h-481v231h481v494z" />
    <glyph glyph-name="comma" unicode="," horiz-adv-x="999" 
d="M352 -369q-70 0 -133 7v239h33q79 0 111 24t32 83v16h-110v420h432v-469q0 -170 -85.5 -245t-279.5 -75z" />
    <glyph glyph-name="hyphen" unicode="-" horiz-adv-x="1010" 
d="M834 725v-381h-674v381h674z" />
    <glyph glyph-name="period" unicode="." horiz-adv-x="999" 
d="M711 0h-422v422h422v-422z" />
    <glyph glyph-name="slash" unicode="/" horiz-adv-x="745" 
d="M850 1507l-791 -1697h-227l791 1697h227z" />
    <glyph glyph-name="zero" unicode="0" horiz-adv-x="2001" 
d="M1108 1159h-215q-182 0 -239.5 -63t-57.5 -248v-219q0 -175 60 -237t237 -62h215q178 0 237.5 61.5t59.5 241.5v225q0 180 -58 240.5t-239 60.5zM1229 1507q217 0 319.5 -23.5t168.5 -83.5q132 -119 132 -448v-415q0 -330 -135 -451q-64 -57 -166.5 -80.5t-318.5 -23.5
h-457q-218 0 -319 23.5t-169 82.5q-134 116 -134 440v406q0 187 31.5 296.5t99.5 169.5t172.5 83.5t316.5 23.5h459z" />
    <glyph glyph-name="one" unicode="1" horiz-adv-x="2001" 
d="M1442 0h-436v1120l-504 -346l-215 311l651 404h504v-1489z" />
    <glyph glyph-name="two" unicode="2" horiz-adv-x="2001" 
d="M147 944v105q0 258 125.5 358t466.5 100h604q268 0 390 -85t122 -271v-246q0 -144 -94 -233t-262 -103l-797 -67q-69 -6 -101 -43.5t-32 -112.5v-8h1301v-338h-1723v524q0 124 98.5 206t264.5 95l700 58q124 10 169.5 34.5t45.5 75.5v76q0 98 -202 98h-389
q-148 0 -206.5 -45t-58.5 -153l2 -17q0 -6 -2 -8h-422z" />
    <glyph glyph-name="three" unicode="3" horiz-adv-x="2001" 
d="M1276 915q119 1 119 127q0 64 -41 93.5t-144 29.5h-479q-98 0 -133 -34.5t-35 -126.5v-19h-419q-5 67 -5 96q0 229 128.5 327.5t428.5 98.5h617q283 0 397.5 -70.5t114.5 -242.5v-174q0 -133 -50 -190t-184 -80q152 -23 212.5 -77.5t60.5 -168.5v-187
q0 -172 -120.5 -253.5t-373.5 -81.5h-635q-202 0 -305.5 19t-171.5 65q-134 92 -133 372q0 32 4 95v6l420 -1q-2 -16 -2 -51q0 -96 41 -129.5t168 -33.5h536q74 0 108 28t34 94t-40.5 97.5t-133.5 31.5h-447v340h463z" />
    <glyph glyph-name="four" unicode="4" horiz-adv-x="2001" 
d="M1237 643v485l-772 -485h772zM1657 0h-420v301h-1137v541l1039 647h518v-846h229v-342h-229v-301z" />
    <glyph glyph-name="five" unicode="5" horiz-adv-x="2001" 
d="M156 385q0 48 2 76h415v-17q0 -69 52.5 -97t187.5 -28h451q102 0 144 32.5t42 109.5v90q0 61 -52 89t-169 28h-494q-65 0 -96.5 -17.5t-44.5 -58.5h-385v897h1608v-338h-1219v-240q49 51 130 73t233 22h409q265 0 388.5 -88.5t123.5 -276.5v-250q0 -218 -134.5 -313.5
t-449.5 -95.5h-526q-351 0 -483.5 89.5t-132.5 313.5z" />
    <glyph glyph-name="six" unicode="6" horiz-adv-x="2001" 
d="M788 322h429q104 0 152 35t48 111t-45 108t-155 32h-429q-106 0 -153 -34t-47 -112t44.5 -109t155.5 -31zM1849 319q0 -337 -452 -337h-670q-297 0 -432 112t-135 357v583q0 268 153.5 370.5t577.5 102.5h401q277 0 404 -88.5t127 -279.5q0 -54 -4 -84h-397
q-8 67 -55.5 97t-149.5 30h-396q-125 0 -177 -42t-52 -141v-165q44 59 127 85.5t231 26.5h328q312 0 441.5 -76t129.5 -254v-297z" />
    <glyph glyph-name="seven" unicode="7" horiz-adv-x="2001" 
d="M168 1120v369h1677v-350l-940 -1139h-524l915 1120h-1128z" />
    <glyph glyph-name="eight" unicode="8" horiz-adv-x="2001" 
d="M1231 1188h-449q-106 0 -153 -32t-47 -102t45 -100t155 -30h449q105 0 153 32t48 102t-45 100t-156 30zM1235 610h-459q-107 0 -154 -34.5t-47 -112.5t45 -109.5t156 -31.5h459q105 0 154 35t49 111t-46 109t-157 33zM147 1118q0 223 101 306t393 83h729q292 0 393 -83
t101 -306q0 -171 -58 -256.5t-186 -103.5q137 -28 193.5 -109t56.5 -254q0 -239 -115.5 -326t-468.5 -87h-561q-203 0 -301.5 18.5t-160.5 63.5q-120 87 -120 331q0 173 56.5 254t193.5 109q-128 18 -187 104t-59 256z" />
    <glyph glyph-name="nine" unicode="9" horiz-adv-x="2001" 
d="M141 356q0 25 5 78h409q8 -68 56.5 -97.5t152.5 -29.5h428q127 0 178 41t51 139v166q-44 -60 -127 -86t-231 -26h-324q-312 0 -441.5 76.5t-129.5 254.5v295q0 172 112 256t341 84h665q297 0 433 -113t136 -358v-583q0 -268 -158.5 -369.5t-596.5 -101.5h-412
q-286 0 -416.5 89t-130.5 285zM1225 1167h-426q-106 0 -154.5 -35.5t-48.5 -111.5t45.5 -108.5t157.5 -32.5h426q106 0 153 34.5t47 112.5t-44.5 109.5t-155.5 31.5z" />
    <glyph glyph-name="colon" unicode=":" horiz-adv-x="999" 
d="M717 0h-432v422h432v-422zM717 631h-432v422h432v-422z" />
    <glyph glyph-name="semicolon" unicode=";" horiz-adv-x="999" 
d="M352 -369q-70 0 -133 7v239h33q79 0 111 24t32 83v16h-110v420h432v-469q0 -170 -85.5 -245t-279.5 -75zM717 631h-432v422h432v-422z" />
    <glyph glyph-name="less" unicode="&#x3c;" horiz-adv-x="1706" 
d="M1442 1214v-253l-854 -351l854 -348v-254l-1178 486v233z" />
    <glyph glyph-name="equal" unicode="=" horiz-adv-x="1706" 
d="M254 950h1198v-231h-1198v231zM254 502h1198v-230h-1198v230z" />
    <glyph glyph-name="greater" unicode="&#x3e;" horiz-adv-x="1706" 
d="M264 1214l1178 -487v-233l-1178 -486v254l854 348l-854 351v253z" />
    <glyph glyph-name="question" unicode="?" horiz-adv-x="1651" 
d="M954 0h-411v391h411v-391zM84 1110q0 218 135.5 306.5t480.5 88.5h328q287 0 409 -74t122 -247v-223q0 -122 -68.5 -200.5t-190.5 -96.5l-251 -39q-69 -12 -90 -32.5t-21 -68.5v-16h-381q-4 80 -4 94q0 134 46.5 204t148.5 89l309 57q67 13 96 41.5t29 91.5t-56 93
t-198 30h-226q-137 0 -185 -45t-48 -170v-28h-375q-10 66 -10 145z" />
    <glyph glyph-name="at" unicode="@" horiz-adv-x="2048" 
d="M856.5 731q-78.5 -121 -78.5 -291t144 -170q74 0 137.5 59t87.5 158l51 209q-18 156 -160 156q-103 0 -181.5 -121zM866 104q-163 0 -247 87.5t-84 257.5q0 241 141.5 404t349.5 163q154 0 229 -123l52 92h206l-153 -610l-4 -33q0 -59 63 -59q137 0 240.5 143.5
t103.5 335.5q0 239 -179.5 390t-471.5 151t-500 -146q-155 -110 -239 -274.5t-84 -356.5q0 -302 203 -481.5t541 -179.5t599 186l97 -135q-311 -233 -696 -233t-640 194q-311 242 -311 643q0 342 209 598q148 183 359.5 278t467.5 95q352 0 580 -178q270 -212 270 -552
q0 -339 -256 -544q-142 -115 -330 -115q-211 0 -221 160q-56 -82 -126.5 -120t-168.5 -38z" />
    <glyph glyph-name="A" unicode="A" horiz-adv-x="2195" 
d="M500 0h-496l813 1489h580l798 -1489h-499l-144 248h-907zM817 606h572l-289 527z" />
    <glyph glyph-name="B" unicode="B" horiz-adv-x="2152" 
d="M1561 0h-1411v1489h1341q250 0 373 -103t123 -313q0 -119 -53.5 -195.5t-166.5 -119.5q141 -23 206 -108.5t65 -246.5q0 -211 -113 -307t-364 -96zM1403 909q117 0 117 123q0 55 -32.5 89t-84.5 34h-799v-246h799zM1444 338q60 0 92.5 35.5t32.5 98.5t-34 98.5t-91 35.5
h-840v-268h840z" />
    <glyph glyph-name="C" unicode="C" horiz-adv-x="2150" 
d="M2034 1075q0 -99 -3 -123h-456v15q0 87 -57.5 127.5t-182.5 40.5h-364q-234 0 -300.5 -56.5t-66.5 -236.5v-207q0 -161 74 -221t293 -60h264q217 0 284.5 43.5t67.5 161.5v16h461l4 -108q0 -277 -149 -385q-73 -54 -194.5 -77t-356.5 -23h-508q-233 0 -343 25t-194 91
q-166 129 -166 430v406q0 320 152 446.5t551 126.5h508q245 0 361 -22t185 -75t102.5 -144.5t33.5 -190.5z" />
    <glyph glyph-name="D" unicode="D" horiz-adv-x="2226" 
d="M1460 1489q341 0 496 -119.5t155 -380.5v-512q0 -248 -124 -362.5t-394 -114.5h-1439v1489h1306zM1321 1122h-713v-760h770q145 0 212 59t67 185v262q0 131 -81.5 192.5t-254.5 61.5z" />
    <glyph glyph-name="E" unicode="E" horiz-adv-x="1905" 
d="M1776 1126h-1172v-225h1104v-313h-1104v-228h1190v-360h-1644v1489h1626v-363z" />
    <glyph glyph-name="F" unicode="F" horiz-adv-x="1800" 
d="M1776 1126h-1172v-266h1104v-360h-1104v-500h-454v1489h1626v-363z" />
    <glyph glyph-name="G" unicode="G" horiz-adv-x="2154" 
d="M1563 512l-4 45h-535v301h1008v-489q0 -210 -155.5 -298.5t-541.5 -88.5h-506q-233 0 -344 25t-195 91q-166 130 -165 430v406q0 320 151.5 446.5t550.5 126.5h508q246 0 363.5 -22t185.5 -75t101.5 -144.5t33.5 -187.5t-2 -126h-456v4q0 103 -62 141t-280 38h-265
q-233 0 -298.5 -56t-65.5 -237v-207q0 -161 74 -221t292 -60h263q196 0 270 35.5t74 122.5z" />
    <glyph glyph-name="H" unicode="H" horiz-adv-x="2150" 
d="M608 0h-454v1489h454v-547h932v547h457v-1489h-457v582h-932v-582z" />
    <glyph glyph-name="I" unicode="I" horiz-adv-x="795" 
d="M625 0h-455v1489h455v-1489z" />
    <glyph glyph-name="J" unicode="J" horiz-adv-x="1698" 
d="M1544 420q0 -202 -124 -321q-62 -59 -169.5 -87t-302.5 -28h-317q-338 0 -462.5 99t-127.5 365v197h440v-53q0 -146 43.5 -192t167.5 -46h205q110 0 151.5 42t41.5 169v924h454v-1069z" />
    <glyph glyph-name="K" unicode="K" horiz-adv-x="2101" 
d="M614 936h191l596 553h604l-805 -735l911 -754h-632l-674 563h-191v-563h-454v1489h454v-553z" />
    <glyph glyph-name="L" unicode="L" horiz-adv-x="1655" 
d="M637 360h991v-360h-1446v1489h455v-1129z" />
    <glyph glyph-name="M" unicode="M" horiz-adv-x="2712" 
d="M596 0h-442v1489h671l531 -930l540 930h662v-1489h-440v1061l-615 -1061h-297l-610 1061v-1061z" />
    <glyph glyph-name="N" unicode="N" horiz-adv-x="2310" 
d="M2167 0h-666l-893 1083v-1083h-454v1489h673l887 -1092v1092h453v-1489z" />
    <glyph glyph-name="O" unicode="O" horiz-adv-x="2253" 
d="M983 354h289q241 0 320 60.5t79 224.5v211q0 164 -79 224.5t-320 60.5h-291q-246 0 -322.5 -61t-76.5 -232v-207q0 -161 80.5 -221t320.5 -60zM860 -18q-261 0 -382 24t-202 84t-119 163.5t-38 274.5v406q0 187 38.5 296t118.5 169t204.5 84t377.5 24h535
q254 0 379.5 -23.5t203.5 -83.5q156 -118 156 -448v-415q0 -327 -156 -447q-79 -60 -202 -84t-381 -24h-533z" />
    <glyph glyph-name="P" unicode="P" horiz-adv-x="1997" 
d="M1298 1489q278 -1 393 -61q116 -60 167 -176.5t51 -321.5q0 -306 -102 -432.5t-345 -126.5h-850v-371h-456v1489h1142zM1282 1118h-670v-377h670q91 0 127.5 44.5t36.5 146.5t-39 144t-125 42z" />
    <glyph glyph-name="Q" unicode="Q" horiz-adv-x="2253" 
d="M2140 618q0 -147 -18 -210l176 -107l-156 -293l-162 103q-61 -72 -177.5 -100.5t-401.5 -28.5h-533q-256 0 -379.5 24t-204.5 84t-119 161t-38 273v406q0 186 38.5 294t118.5 168t205 84.5t377 24.5h535q253 0 378 -24t205 -83t118 -165t38 -281v-330zM1700 848
q0 163 -78 222.5t-322 59.5h-311q-244 0 -321.5 -61t-77.5 -231v-207q0 -143 71 -211t220 -68h452q190 0 250 27q-25 8 -131 70l-338 200l162 256l293 -172q76 -44 133 -90l-2 133v72z" />
    <glyph glyph-name="R" unicode="R" horiz-adv-x="2103" 
d="M1954 305v-305h-455v227q0 88 -41.5 121t-163.5 33h-678v-381h-456v1489h1196q354 0 482 -105t128 -383q0 -193 -57 -287t-191 -126q236 -56 236 -283zM1339 1118h-723v-364h723q91 0 127.5 42t36.5 142t-39 140t-125 40z" />
    <glyph glyph-name="S" unicode="S" horiz-adv-x="2097" 
d="M1485 1032q0 148 -150 148h-524q-131 0 -173 -26t-42 -90t38 -93t140 -37l748 -12q256 -7 360.5 -115t104.5 -369q0 -155 -38.5 -240t-114.5 -134t-178.5 -65.5t-297.5 -16.5h-606q-373 0 -499 83.5t-126 311.5q0 30 6 118l449 1v-27q0 -84 41 -113.5t172 -29.5h571
q84 0 120 29t36 95t-41.5 95t-178.5 39l-714 16q-268 8 -362.5 102t-94.5 340t105 351q65 62 170 88t342 26h694q258 0 371.5 -94t113.5 -305q0 -34 -4 -82h-438v6z" />
    <glyph glyph-name="T" unicode="T" horiz-adv-x="1798" 
d="M1126 0h-454v1124h-623v365h1700v-365h-623v-1124z" />
    <glyph glyph-name="U" unicode="U" horiz-adv-x="2150" 
d="M150 1489h454v-883q0 -151 68.5 -202.5t298.5 -51.5h258q191 0 256 54.5t65 199.5v883h455v-1024q0 -263 -141.5 -373t-489.5 -110h-508q-409 0 -562.5 105t-153.5 378v1024z" />
    <glyph glyph-name="V" unicode="V" horiz-adv-x="2144" 
d="M1075 420l594 1069h483l-794 -1489h-551l-787 1489h496z" />
    <glyph glyph-name="W" unicode="W" horiz-adv-x="2681" 
d="M1014 0h-520l-476 1489h453l307 -1059l381 1059h418l360 -1059l328 1059h453l-498 -1489h-512l-344 1026z" />
    <glyph glyph-name="X" unicode="X" horiz-adv-x="2171" 
d="M8 0l733 756l-678 733h568l463 -522l467 522h548l-657 -733l715 -756h-586l-487 522l-494 -522h-592z" />
    <glyph glyph-name="Y" unicode="Y" horiz-adv-x="2103" 
d="M1270 0h-455v535l-821 954h559l489 -592l512 592h539l-823 -954v-535z" />
    <glyph glyph-name="Z" unicode="Z" horiz-adv-x="1901" 
d="M1829 0h-1751v365l1061 763h-1022v361h1687v-361l-1054 -763h1079v-365z" />
    <glyph glyph-name="bracketleft" unicode="[" horiz-adv-x="958" 
d="M840 1487v-348h-240v-789h240v-350h-652v1487h652z" />
    <glyph glyph-name="backslash" unicode="\" horiz-adv-x="745" 
d="M-106 1507h227l790 -1697h-227z" />
    <glyph glyph-name="bracketright" unicode="]" horiz-adv-x="958" 
d="M162 1487h651v-1487h-651v350h239v789h-239v348z" />
    <glyph glyph-name="asciicircum" unicode="^" horiz-adv-x="2048" 
d="M879 1462h288l465 -563h-264l-344 342l-346 -342h-264z" />
    <glyph glyph-name="underscore" unicode="_" 
d="M0 -244h1024v-239h-1024v239z" />
    <glyph glyph-name="grave" unicode="`" 
d="M729 1176h-192l-474 284h398z" />
    <glyph glyph-name="a" unicode="a" horiz-adv-x="1548" 
d="M608 821q-110 0 -110 -80h-381v13q0 166 123.5 239.5t410.5 73.5h371q215 0 318.5 -85.5t103.5 -262.5v-719h-379v127q-112 -141 -492 -141q-289 0 -397 76t-108 274t111.5 273t433.5 75t452 -90v113q0 55 -38 84.5t-109 29.5h-310zM872 455h-231q-104 0 -146 -24.5
t-42 -82.5t38.5 -80t149.5 -22h231q104 0 146.5 24.5t42.5 82.5t-38.5 80t-150.5 22z" />
    <glyph glyph-name="b" unicode="b" horiz-adv-x="1659" 
d="M1033 1053q268 0 392.5 -84t124.5 -287v-348q0 -192 -124.5 -272t-400.5 -80t-381.5 47.5t-117.5 158.5v-188h-379v1489h379v-631q31 107 135 151t372 44zM760 272h172q132 0 185.5 41t53.5 138v131q0 96 -55.5 138t-183.5 42h-172q-136 0 -188 -40.5t-52 -146.5v-126
q0 -96 54.5 -136.5t185.5 -40.5z" />
    <glyph glyph-name="c" unicode="c" horiz-adv-x="1597" 
d="M1493 377q0 -212 -117.5 -301.5t-398.5 -89.5h-365q-268 0 -385.5 90.5t-117.5 296.5v286q0 228 111.5 318t391.5 90h359q262 0 384 -87t122 -273q0 -46 -7 -86h-358v6q0 82 -48.5 118.5t-160.5 36.5h-186q-130 0 -179 -41t-49 -151v-135q0 -100 52.5 -142.5t175.5 -42.5
h166q142 0 186.5 36t44.5 136h377q2 -24 2 -65z" />
    <glyph glyph-name="d" unicode="d" horiz-adv-x="1659" 
d="M1133 1489h378v-1489h-378v188q-12 -111 -117.5 -158.5t-381.5 -47.5t-400.5 80t-124.5 272v348q0 203 124.5 287t392.5 84t372 -44t135 -151v631zM899 272q131 0 185.5 40.5t54.5 136.5v126q0 106 -52 146.5t-188 40.5h-172q-129 0 -184.5 -42t-55.5 -138v-131
q0 -97 53.5 -138t186.5 -41h172z" />
    <glyph glyph-name="e" unicode="e" horiz-adv-x="1548" 
d="M487 666h584v4q0 75 -47.5 106t-165.5 31h-156q-118 0 -166.5 -31.5t-48.5 -105.5v-4zM711 236h159q123 0 160 24t49 90h357v-16q0 -185 -113 -266.5t-373 -81.5h-352q-238 0 -363.5 99.5t-125.5 287.5v286q0 198 125.5 303t361.5 105h354q238 0 363 -104.5t125 -303.5
v-225h-951l-2 -28q0 -91 52.5 -130.5t173.5 -39.5z" />
    <glyph glyph-name="f" unicode="f" horiz-adv-x="948" 
d="M598 1087q0 -22 2 -34h348v-287h-348v-766h-381v766h-184v287h184v34q0 222 104 312t363 90h242v-262h-11q-63 4 -90 4q-124 0 -176.5 -33t-52.5 -111z" />
    <glyph glyph-name="g" unicode="g" horiz-adv-x="1653" 
d="M737 80q-360 0 -485 73.5t-125 264.5v289q0 190 127 275t412 85q202 0 314.5 -42t154.5 -132v160h378v-1049q0 -173 -132.5 -266.5t-379.5 -93.5h-350q-321 0 -423.5 66.5t-102.5 244.5v16h379q4 -46 44.5 -64t153.5 -18h216q116 0 168.5 52.5t52.5 171.5q0 17 -2 39
t-2 26q-32 -53 -119.5 -75.5t-278.5 -22.5zM901 342q127 0 180.5 39.5t53.5 132.5v121q0 89 -54 127.5t-180 38.5h-168q-133 0 -183 -37.5t-50 -134.5v-117q0 -89 52 -127t182 -43h167z" />
    <glyph glyph-name="h" unicode="h" horiz-adv-x="1653" 
d="M999 1063q514 0 514 -383v-680h-378v530q0 140 -62.5 184t-232.5 44t-242 -56.5t-72 -183.5v-518h-379v1489h379v-604q65 97 166.5 137.5t306.5 40.5z" />
    <glyph glyph-name="i" unicode="i" horiz-adv-x="696" 
d="M539 0h-379v1053h379v-1053zM539 1180h-379v309h379v-309z" />
    <glyph glyph-name="j" unicode="j" horiz-adv-x="700" 
d="M172 29v1024h379v-1112q0 -169 -78.5 -233t-290.5 -64q-63 0 -155 10v266l53 -6q48 0 70 27t22 88zM551 1180h-379v309h379v-309z" />
    <glyph glyph-name="k" unicode="k" horiz-adv-x="1526" 
d="M537 713h90l327 340h498l-504 -492l574 -561h-480l-415 420h-90v-420h-381v1489h381v-776z" />
    <glyph glyph-name="l" unicode="l" horiz-adv-x="696" 
d="M539 0h-379v1489h379v-1489z" />
    <glyph glyph-name="m" unicode="m" horiz-adv-x="2492" 
d="M526 0h-379v1047h379v-162q59 97 151 137.5t279 40.5q375 0 445 -240q54 126 156.5 183t277.5 57q264 0 392 -94.5t128 -288.5v-680h-379v530q0 140 -55.5 184t-202.5 44t-208.5 -56t-61.5 -184v-518h-379v530q0 140 -56.5 184t-206.5 44t-215 -56.5t-65 -183.5v-518z
" />
    <glyph glyph-name="n" unicode="n" horiz-adv-x="1651" 
d="M999 1063q514 0 514 -383v-680h-378v530q0 140 -62.5 184t-234.5 44t-242 -57.5t-70 -192.5v-508h-379v1047h379v-162q65 97 166.5 137.5t306.5 40.5z" />
    <glyph glyph-name="o" unicode="o" horiz-adv-x="1647" 
d="M635 -14q-284 0 -405 90t-121 297v286q0 225 118 316.5t406 91.5h381q279 0 401.5 -92.5t122.5 -302.5v-293q0 -213 -119 -303t-405 -90h-379zM735 270h178q136 0 191 42.5t55 144.5v139q0 101 -56 143.5t-190 42.5h-178q-141 0 -194.5 -42t-53.5 -150v-135
q0 -100 56.5 -142.5t191.5 -42.5z" />
    <glyph glyph-name="p" unicode="p" horiz-adv-x="1659" 
d="M760 776q-131 0 -185.5 -40t-54.5 -136v-127q0 -105 51.5 -144.5t188.5 -39.5h172q129 0 184 41t55 137v131q0 97 -53.5 137.5t-185.5 40.5h-172zM526 -356h-379v1409h379v-193q12 112 117.5 159.5t381.5 47.5t400.5 -80t124.5 -272v-348q0 -192 -130 -278.5t-396 -86.5
t-367 42t-131 146v-546z" />
    <glyph glyph-name="q" unicode="q" horiz-adv-x="1659" 
d="M899 776h-172q-133 0 -186.5 -40.5t-53.5 -137.5v-131q0 -96 55.5 -137t184.5 -41h172q137 0 188.5 39.5t51.5 144.5v127q0 96 -54.5 136t-185.5 40zM634 2q-266 0 -395.5 86.5t-129.5 278.5v348q0 192 124.5 272t400.5 80t381.5 -47.5t117.5 -159.5v193h378v-1409h-378
v546q-31 -104 -132 -146t-367 -42z" />
    <glyph glyph-name="r" unicode="r" horiz-adv-x="1343" 
d="M924 1069q219 0 311 -93t92 -312q0 -32 -4 -99v-6h-334v16q0 93 -51.5 137t-161.5 44t-173.5 -51.5t-63.5 -143.5v-561h-379v1053h379v-197q56 113 146 163t239 50z" />
    <glyph glyph-name="s" unicode="s" horiz-adv-x="1593" 
d="M614 817q-76 0 -106.5 -15.5t-30.5 -51.5t32 -52.5t146 -23.5h463q203 -3 297 -83.5t94 -262.5t-104.5 -262t-368.5 -80h-385q-326 0 -441 76t-118 271l402 1v-4q0 -49 49 -71.5t157 -22.5h277q83 0 117 18.5t34 60.5t-36.5 62.5t-118.5 25.5l-375 7q-284 1 -393 73
t-109 249t118 256t396 79h430q206 0 305 -76t101 -235h-379q-28 61 -188 61h-265z" />
    <glyph glyph-name="t" unicode="t" horiz-adv-x="1346" 
d="M1282 391q0 -215 -125 -310t-403 -95t-388 81.5t-110 282.5v428h-213v275h213v252h379v-252h592v-275h-592v-358q0 -83 33.5 -116.5t119.5 -33.5t122 34t36 118l-4 61h336q4 -34 4 -92z" />
    <glyph glyph-name="u" unicode="u" horiz-adv-x="1651" 
d="M1124 1053h379v-1053h-379v162q-63 -97 -164.5 -136.5t-337.5 -39.5q-488 0 -487 393v674h379v-537q0 -136 61 -180.5t235 -44.5t244 54.5t70 193.5v514z" />
    <glyph glyph-name="v" unicode="v" horiz-adv-x="1499" 
d="M995 0h-477l-506 1053h426l316 -738l327 738h420z" />
    <glyph glyph-name="w" unicode="w" horiz-adv-x="2245" 
d="M416 0l-400 1053h418l248 -746l274 746h340l265 -746l266 746h403l-409 -1053h-492l-207 584l-219 -584h-487z" />
    <glyph glyph-name="x" unicode="x" horiz-adv-x="1497" 
d="M502 0h-479l426 553l-412 500h502l202 -275l201 275h488l-390 -488l459 -565h-493l-258 348z" />
    <glyph glyph-name="y" unicode="y" horiz-adv-x="1452" 
d="M504 -356q-88 0 -172 8v249q58 -5 82 -5q91 0 141.5 37t69.5 118h-142l-460 1002h417l293 -684l303 684h414l-526 -1135q-80 -173 -168 -223q-87 -51 -252 -51z" />
    <glyph glyph-name="z" unicode="z" horiz-adv-x="1296" 
d="M1245 0h-1190v266l637 498h-600v289h1133v-291l-602 -475h622v-287z" />
    <glyph glyph-name="braceleft" unicode="{" 
d="M686 1055v-240q0 -140 -46 -200t-165 -85q120 -24 165.5 -82.5t45.5 -199.5v-242q0 -110 33.5 -145t130.5 -35l43 2v-242l-82 -2q-205 0 -299 49q-59 32 -82.5 88.5t-23.5 192.5v256q0 133 -49.5 187.5t-168.5 54.5l-36 -2v241l36 -2q118 0 168 55.5t50 188.5v254
q0 136 24 193.5t77 85.5q98 52 306 53l80 -2v-242l-41 2q-98 0 -132 -35.5t-34 -146.5z" />
    <glyph glyph-name="bar" unicode="|" 
d="M393 1565h240v-2048h-240v2048z" />
    <glyph glyph-name="braceright" unicode="}" 
d="M621 1147v-254q0 -134 49 -189t168 -55l36 2v-241l-36 2q-119 0 -168 -55t-49 -187v-256q0 -137 -24.5 -194.5t-76.5 -85.5q-95 -50 -297 -50l-90 2v242l43 -2q97 0 130.5 34.5t33.5 145.5v242q0 140 46 199t165 83q-120 25 -165.5 84t-45.5 201v240q0 111 -33.5 146.5
t-126.5 35.5l-47 -2v242l80 2q205 0 301 -49q58 -32 82.5 -89.5t24.5 -193.5z" />
    <glyph glyph-name="asciitilde" unicode="~" horiz-adv-x="1706" 
d="M1153 428q-93 0 -210 42q-255 89 -382 89q-162 0 -383 -158v254q221 144 387 144q128 1 317 -65t277 -66q165 0 371 151v-254q-201 -137 -377 -137z" />
    <glyph glyph-name="Euro" horiz-adv-x="2001" 
d="M1845 442q0 -270 -137 -374q-61 -48 -164 -67t-381 -19h-252q-218 0 -318.5 24t-168.5 82q-134 115 -135 432h-223l47 146h176v157h-223l47 146h176q5 319 133 433q66 58 170.5 81.5t316.5 23.5h242q278 0 380.5 -19.5t168.5 -69.5q132 -101 133 -371v-37h-442
q0 87 -57.5 127.5t-182.5 40.5h-119q-158 0 -218 -45t-75 -164h596l-47 -146h-553v-157h500l-47 -146h-449q13 -118 75 -163.5t218 -45.5h131q125 0 182.5 40.5t57.5 127.5v15h442v-52z" />
    <glyph glyph-name="Euro" unicode="&#x20ac;" horiz-adv-x="2001" 
d="M1845 442q0 -270 -137 -374q-61 -48 -164 -67t-381 -19h-252q-218 0 -318.5 24t-168.5 82q-134 115 -135 432h-223l47 146h176v157h-223l47 146h176q5 319 133 433q66 58 170.5 81.5t316.5 23.5h242q278 0 380.5 -19.5t168.5 -69.5q132 -101 133 -371v-37h-442
q0 87 -57.5 127.5t-182.5 40.5h-119q-158 0 -218 -45t-75 -164h596l-47 -146h-553v-157h500l-47 -146h-449q13 -118 75 -163.5t218 -45.5h131q125 0 182.5 40.5t57.5 127.5v15h442v-52z" />
    <glyph glyph-name="nonbreakingspace" unicode="&#xa0;" horiz-adv-x="2001" 
 />
    <glyph glyph-name="exclamdown" unicode="&#xa1;" horiz-adv-x="999" 
d="M289 1489h422v-422h-422v422zM711 0h-422v371l22 512h387l13 -512v-371z" />
    <glyph glyph-name="cent" unicode="&#xa2;" horiz-adv-x="2001" 
d="M1731 373q0 -212 -117.5 -301.5t-399.5 -89.5h-215l-69 -265h-232l74 267q-244 29 -335 124.5t-91 331.5v178q0 236 118 339.5t386 103.5h227l62 215h223l-64 -221q217 -11 316.5 -95.5t99.5 -257.5q0 -41 -6 -85l-358 -1q0 140 -131 152l-138 -502h39q141 0 185.5 35.5
t44.5 134.5h378q3 -18 3 -63zM956 776q-132 0 -180.5 -41t-48.5 -151v-135q0 -159 129 -173l141 500h-41z" />
    <glyph glyph-name="sterling" unicode="&#xa3;" horiz-adv-x="2001" 
d="M1907 0h-1792v344q65 0 101 26t36 72v138h-164v280h164v213q0 212 136 323t394 111h545q286 0 420.5 -117t134.5 -364v-6h-407v12q0 74 -36.5 104.5t-125.5 30.5h-486q-79 0 -111 -28t-32 -97v-182h641v-280l-641 -1q-4 -149 -96 -239h1319v-340z" />
    <glyph glyph-name="currency" unicode="&#xa4;" horiz-adv-x="2001" 
d="M1845 442q0 -270 -137 -374q-61 -48 -164 -67t-381 -19h-252q-218 0 -318.5 24t-168.5 82q-134 115 -135 432h-223l47 146h176v157h-223l47 146h176q5 319 133 433q66 58 170.5 81.5t316.5 23.5h242q278 0 380.5 -19.5t168.5 -69.5q132 -101 133 -371v-37h-442
q0 87 -57.5 127.5t-182.5 40.5h-119q-158 0 -218 -45t-75 -164h596l-47 -146h-553v-157h500l-47 -146h-449q13 -118 75 -163.5t218 -45.5h131q125 0 182.5 40.5t57.5 127.5v15h442v-52z" />
    <glyph glyph-name="yen" unicode="&#xa5;" horiz-adv-x="2030" 
d="M1227 0h-426v535l-35 38h-746v162h607l-150 176h-457v162h316l-359 416h496l545 -660l561 660h469l-358 -416h321v-162h-461l-153 -176h614v-162h-754l-30 -38v-535z" />
    <glyph glyph-name="brokenbar" unicode="&#xa6;" 
d="M393 1432h240v-758h-240v758zM393 408h240v-758h-240v758z" />
    <glyph glyph-name="section" unicode="&#xa7;" horiz-adv-x="1655" 
d="M1229 709q0 49 -39 75.5t-137 44.5l-574 103q-45 -43 -45 -95q0 -51 36 -79.5t126 -42.5l575 -97q58 42 58 91zM1446 294q0 -170 -101 -241t-352 -71h-440q-182 0 -259 65t-77 217q0 13 4 71l305 1v-21q0 -53 26 -75.5t87 -22.5h381q90 0 90 72q0 33 -23 50t-86 28
l-489 82q-200 33 -275 97t-75 176q0 218 211 251q-146 89 -146 247t101.5 222.5t349.5 64.5h385q180 0 255 -60t75 -202v-31h-306q-8 42 -35 60t-79 18h-299q-70 0 -97.5 -14.5t-27.5 -50.5q0 -53 158 -75l438 -65q178 -26 263 -96.5t85 -191.5q0 -204 -207 -230
q160 -105 160 -275z" />
    <glyph glyph-name="dieresis" unicode="&#xa8;" 
d="M109 1186v262h327v-262h-327zM588 1186v262h327v-262h-327z" />
    <glyph glyph-name="copyright" unicode="&#xa9;" horiz-adv-x="1706" 
d="M328 1268q215 217 526 217t528 -217t217 -532t-213 -523q-109 -108 -247.5 -165.5t-286.5 -57.5q-306 0 -526 220.5t-220 526.5q0 148 57.5 285t164.5 246zM242 738q0 -249 181 -430t432 -181t430 176t179 433q0 258 -177 436t-433 178q-255 0 -434 -182
q-178 -181 -178 -430zM1008 891q-16 141 -164 141q-76 0 -122 -77t-46 -216q0 -284 186 -284q67 0 106.5 40.5t45.5 114.5h215q-6 -143 -107.5 -230t-277.5 -87t-287 117.5t-111 322.5t111 327t283 122t272.5 -80t108.5 -211h-213z" />
    <glyph glyph-name="ordfeminine" unicode="&#xaa;" horiz-adv-x="1161" 
d="M457 1327q-84 0 -84 -57h-285v10q0 117 93 168t308 51h277q162 0 239.5 -60t77.5 -184v-503h-284v88q-83 -99 -369 -99q-216 0 -297.5 54.5t-81.5 192.5t84 190.5t325 52.5t339 -64v80q0 80 -111 80h-231zM655 1069h-174q-78 0 -109.5 -17.5t-31.5 -57.5t29.5 -55
t111.5 -15h174q79 0 110.5 17t31.5 57t-28.5 55.5t-113.5 15.5z" />
    <glyph glyph-name="guillemotleft" unicode="&#xab;" horiz-adv-x="1190" 
d="M627 852l-236 -322l236 -313h-312l-235 313l235 322h312zM1108 852l-234 -322l234 -313h-311l-234 313l234 322h311z" />
    <glyph glyph-name="logicalnot" unicode="&#xac;" horiz-adv-x="1706" 
d="M254 866h1198v-501h-229v274h-969v227z" />
    <glyph glyph-name="sfthyphen" unicode="&#xad;" horiz-adv-x="1010" 
d="M834 725v-381h-674v381h674z" />
    <glyph glyph-name="registered" unicode="&#xae;" horiz-adv-x="1706" 
d="M334 1274q213 211 526 211t526 -220t213 -533q0 -314 -221 -525q-225 -217 -531 -217t-524 225q-217 225 -217 522q0 151 59 290t169 247zM428 1178q-184 -184 -184 -436t177 -434q177 -181 429 -181t433 175t181 432t-176 436q-176 180 -430 180t-430 -172zM537 1163
h329q174 0 264.5 -60t90.5 -177q0 -81 -46 -139t-128 -82l182 -361h-248l-154 326h-65v-326h-225v819zM842 803q147 0 147 106q0 59 -38 86t-122 27h-67v-219h80z" />
    <glyph glyph-name="macron" unicode="&#xaf;" 
d="M109 1235v164h806v-164h-806z" />
    <glyph glyph-name="degree" unicode="&#xb0;" horiz-adv-x="674" 
d="M338 1466q130 0 220.5 -91t90.5 -219t-91.5 -220t-221.5 -92t-219.5 91t-89.5 221t90.5 220t220.5 90zM338 1321q-68 0 -117 -48t-49 -117t48 -117t117 -48t117 49t48 117t-48 116t-116 48z" />
    <glyph glyph-name="plusminus" unicode="&#xb1;" horiz-adv-x="1706" 
d="M735 1241h238v-319h479v-232h-479v-319h-238v319h-481v232h481v319zM254 213h1198v-231h-1198v231z" />
    <glyph glyph-name="twosuperior" unicode="&#xb2;" horiz-adv-x="1321" 
d="M375 1163h-277v62q0 156 83 216t306 60h400q176 0 257 -51.5t81 -163.5v-147q0 -87 -62 -140t-174 -61l-526 -41q-88 -6 -88 -94v-4h860v-203h-1137v315q0 73 65 122.5t173 58.5l462 34q81 6 111.5 20.5t30.5 45.5v45q0 59 -133 59h-256q-98 0 -137 -26.5t-39 -91.5l1 -8
q1 -7 -1 -7z" />
    <glyph glyph-name="threesuperior" unicode="&#xb3;" horiz-adv-x="1321" 
d="M360 889q0 -57 27.5 -77.5t112.5 -20.5h352q94 0 94 69q0 44 -26.5 63t-88.5 19h-294v203h305q78 0 78 72q0 42 -27 59.5t-94 17.5h-316q-65 0 -87.5 -20t-22.5 -76v-10h-279l-2 57q0 138 84.5 197t282.5 59h407q186 0 262 -42.5t76 -145.5v-105q0 -80 -32.5 -114
t-120.5 -47q100 -15 140 -48t40 -100v-113q0 -102 -79.5 -151t-246.5 -49h-420q-137 0 -204 11t-111 39q-88 55 -88 222q0 13 4 61h276q-2 -12 -2 -30z" />
    <glyph glyph-name="acute" unicode="&#xb4;" 
d="M295 1176l268 284h398l-474 -284h-192z" />
    <glyph glyph-name="mu" unicode="&#xb5;" horiz-adv-x="1315" 
d="M573 -16q-122 0 -184 120l-82 -532h-352l238 1518h358l-80 -529q-12 -82 -12 -143q0 -170 143 -170q88 0 138.5 68.5t74.5 220.5l88 553h357l-175 -1090h-321l18 125q-40 -75 -89.5 -108t-119.5 -33z" />
    <glyph glyph-name="paragraph" unicode="&#xb6;" 
d="M997 1479v-123h-106v-1356h-176v1356h-150v-1356h-174v784q-164 6 -263 101t-99 249t106 249.5t283 95.5h579z" />
    <glyph glyph-name="glyph122" unicode="&#xb7;" horiz-adv-x="999" 
d="M270 748q0 96 67 162.5t163 66.5t162.5 -67t66.5 -162t-66.5 -162.5t-162.5 -67.5t-163 67t-67 163z" />
    <glyph glyph-name="cedilla" unicode="&#xb8;" 
d="M575 -324q39 0 39 41q0 23 -9.5 32t-33.5 9h-135q-29 0 -41 16t-12 60v166h129v-109h168q65 0 92 -33t27 -116v-53q0 -84 -27 -117t-94 -33h-436v137h333z" />
    <glyph glyph-name="onesuperior" unicode="&#xb9;" horiz-adv-x="1321" 
d="M952 596h-288v672l-332 -207l-142 186l431 242h331v-893z" />
    <glyph glyph-name="ordmasculine" unicode="&#xba;" horiz-adv-x="1235" 
d="M477 741q-213 0 -304 63t-91 208v200q0 159 89 223t304 64h285q210 0 301.5 -64.5t91.5 -211.5v-205q0 -150 -89 -213.5t-304 -63.5h-283zM551 940h135q101 0 142.5 30t41.5 101v98q0 70 -42 99.5t-142 29.5h-135q-105 0 -144.5 -28.5t-39.5 -104.5v-96q0 -69 42.5 -99
t141.5 -30z" />
    <glyph glyph-name="guillemotright" unicode="&#xbb;" horiz-adv-x="1190" 
d="M563 852h311l234 -322l-234 -313h-311l234 313zM80 852h311l236 -322l-236 -313h-311l235 313z" />
    <glyph glyph-name="onequarter" unicode="&#xbc;" horiz-adv-x="2863" 
d="M909 655h-274v627l-318 -192l-137 174l412 225h317v-834zM1747 1507h195l-830 -1525h-194zM2382 360v273l-488 -273h488zM2646 0h-264v168h-717v303l653 363h328v-474h143v-192h-143v-168z" />
    <glyph glyph-name="onehalf" unicode="&#xbd;" horiz-adv-x="2863" 
d="M909 655h-274v627l-318 -192l-137 174l412 225h317v-834zM1747 1507h195l-830 -1525h-194zM1694 528v60q0 144 79 200t293 56h381q169 0 246.5 -47.5t77.5 -151.5v-137q0 -81 -60 -131t-166 -58l-501 -38q-45 -4 -64.5 -24t-19.5 -62v-7h819v-188h-1085v293
q0 69 62 115.5t168 54.5l440 31q79 7 107 20.5t28 42.5v41q0 55 -127 55h-246q-92 0 -129 -25t-37 -85l2 -11q0 -2 -2 -4h-266z" />
    <glyph glyph-name="threequarters" unicode="&#xbe;" horiz-adv-x="2863" 
d="M344 910q0 -36 26.5 -55t104.5 -19h340q88 0 88 65q0 41 -25.5 58.5t-84.5 17.5h-281v190h291q76 0 76 68q0 40 -26.5 57t-90.5 17h-301q-63 0 -85 -19.5t-22 -72.5v-11l-264 1q-2 18 -2 55q0 127 81 182t269 55h389q178 0 250 -39.5t72 -136.5v-96q0 -75 -31 -106.5
t-114 -45.5q94 -12 132 -43t38 -94v-104q0 -97 -76.5 -143t-235.5 -46h-399q-222 0 -303 49q-82 49 -82 207q0 24 4 55h264q-2 -10 -2 -46zM1749 1507h195l-830 -1525h-194zM2384 360v273l-488 -273h488zM2648 0h-264v168h-717v303l653 363h328v-474h143v-192h-143v-168z
" />
    <glyph glyph-name="questiondown" unicode="&#xbf;" horiz-adv-x="1651" 
d="M1567 375q0 -219 -136 -308.5t-481 -89.5h-327q-286 0 -408.5 75t-122.5 249v223q0 121 68 199t190 96l252 39q66 10 88.5 30.5t22.5 69.5v17h380q5 -67 5 -94q0 -134 -46.5 -203t-148.5 -88l-307 -58q-67 -12 -96 -40t-29 -92t55 -94t197 -30h225q137 0 185.5 45.5
t48.5 170.5v28h374q11 -62 11 -145zM696 1485h412v-391h-412v391z" />
    <glyph glyph-name="Agrave" unicode="&#xc0;" horiz-adv-x="2195" 
d="M500 0h-496l813 1489h580l798 -1489h-499l-144 248h-907zM817 606h572l-289 527zM1315 1616h-192l-474 284h398z" />
    <glyph glyph-name="Aacute" unicode="&#xc1;" horiz-adv-x="2195" 
d="M500 0h-496l813 1489h580l798 -1489h-499l-144 248h-907zM817 606h572l-289 527zM881 1616l268 284h398l-474 -284h-192z" />
    <glyph glyph-name="Acircumflex" unicode="&#xc2;" horiz-adv-x="2195" 
d="M500 0h-496l813 1489h580l798 -1489h-499l-144 248h-907zM817 606h572l-289 527zM670 1616l268 284h320l268 -284h-192l-236 149l-236 -149h-192z" />
    <glyph glyph-name="Atilde" unicode="&#xc3;" horiz-adv-x="2195" 
d="M500 0h-496l813 1489h580l798 -1489h-499l-144 248h-907zM817 606h572l-289 527zM940 1859q42 0 94 -10l173 -33q34 -6 71 -6q90 0 117 72h137q-26 -110 -101 -172t-186 -62q-47 0 -81 9l-184 36q-15 4 -54 4q-101 0 -125 -71h-137q64 233 276 233z" />
    <glyph glyph-name="Adieresis" unicode="&#xc4;" horiz-adv-x="2195" 
d="M500 0h-496l813 1489h580l798 -1489h-499l-144 248h-907zM817 606h572l-289 527zM695 1626v262h327v-262h-327zM1174 1626v262h327v-262h-327z" />
    <glyph glyph-name="Aring" unicode="&#xc5;" horiz-adv-x="2195" 
d="M500 0h-496l813 1481h580l798 -1481h-499l-144 248h-907zM817 606h572l-289 551zM1456 1762q0 -102 -89 -157t-257 -55t-259 56t-91 156t90.5 155t258.5 55t257.5 -54t89.5 -156zM1108 1651q139 1 139 111t-139 110t-139 -110t139 -111z" />
    <glyph glyph-name="AE" unicode="&#xc6;" horiz-adv-x="2697" 
d="M1260 588v581h-68l-361 -581h429zM2554 1489v-363h-854v-225h827v-309h-827v-232h854v-360h-1294v289h-629l-193 -289h-504l965 1489h1655z" />
    <glyph glyph-name="Ccedilla" unicode="&#xc7;" horiz-adv-x="2150" 
d="M2034 1075q0 -99 -3 -123h-456v15q1 87 -57 127t-183 41h-364q-235 -1 -301 -57t-66 -236v-207q0 -161 74 -221t293 -60h264q217 0 285 44t67 161v16h461l4 -108q0 -277 -149 -385q-73 -54 -195 -77t-356 -23h-265v-91h168q65 0 92 -33t27 -116v-53q0 -84 -27 -117
t-94 -33h-436v137h333q39 0 39 41q1 23 -9 32t-34 9h-135q-29 0 -41 16t-12 60v148h-114q-233 0 -343 25t-194 91q-166 129 -166 430v406q0 320 152 446t551 127h508q245 0 361 -22t185 -75q68 -52 102 -144t34 -191z" />
    <glyph glyph-name="Egrave" unicode="&#xc8;" horiz-adv-x="1905" 
d="M1776 1126h-1172v-225h1104v-313h-1104v-228h1190v-360h-1644v1489h1626v-363zM1182 1616h-192l-474 284h398z" />
    <glyph glyph-name="Eacute" unicode="&#xc9;" horiz-adv-x="1905" 
d="M1776 1126h-1172v-225h1104v-313h-1104v-228h1190v-360h-1644v1489h1626v-363zM748 1616l268 284h398l-474 -284h-192z" />
    <glyph glyph-name="Ecircumflex" unicode="&#xca;" horiz-adv-x="1905" 
d="M1776 1126h-1172v-225h1104v-313h-1104v-228h1190v-360h-1644v1489h1626v-363zM537 1616l268 284h320l268 -284h-192l-236 149l-236 -149h-192z" />
    <glyph glyph-name="Edieresis" unicode="&#xcb;" horiz-adv-x="1905" 
d="M1776 1126h-1172v-225h1104v-313h-1104v-228h1190v-360h-1644v1489h1626v-363zM562 1626v262h327v-262h-327zM1041 1626v262h327v-262h-327z" />
    <glyph glyph-name="Igrave" unicode="&#xcc;" horiz-adv-x="795" 
d="M625 0h-455v1489h455v-1489zM614 1616h-192l-474 284h398z" />
    <glyph glyph-name="Iacute" unicode="&#xcd;" horiz-adv-x="795" 
d="M625 0h-455v1489h455v-1489zM180 1616l268 284h398l-474 -284h-192z" />
    <glyph glyph-name="Icircumflex" unicode="&#xce;" horiz-adv-x="795" 
d="M625 0h-455v1489h455v-1489zM-31 1616l268 284h320l268 -284h-192l-236 149l-236 -149h-192z" />
    <glyph glyph-name="Idieresis" unicode="&#xcf;" horiz-adv-x="795" 
d="M625 0h-455v1489h455v-1489zM-6 1626v262h327v-262h-327zM473 1626v262h327v-262h-327z" />
    <glyph glyph-name="Eth" unicode="&#xd0;" horiz-adv-x="2267" 
d="M1356 1122h-711v-258h492v-237h-492v-265h770q144 0 210.5 58.5t66.5 185.5v262q0 131 -81.5 192.5t-254.5 61.5zM1497 1489q341 0 496 -119.5t155 -380.5v-512q0 -248 -124 -362.5t-394 -114.5h-1440v627h-190v237h190v625h1307z" />
    <glyph glyph-name="Ntilde" unicode="&#xd1;" horiz-adv-x="2310" 
d="M2167 0h-666l-893 1083v-1083h-454v1489h673l887 -1092v1092h453v-1489zM1067 1859q42 0 94 -10l173 -33q34 -6 71 -6q90 0 117 72h137q-26 -110 -101 -172t-186 -62q-47 0 -81 9l-184 36q-15 4 -54 4q-101 0 -125 -71h-137q64 233 276 233z" />
    <glyph glyph-name="Ograve" unicode="&#xd2;" horiz-adv-x="2253" 
d="M983 354h289q241 0 320 60t79 225v211q0 164 -79 224t-320 61h-291q-247 0 -323 -61t-76 -232v-207q0 -161 80 -221t321 -60zM860 -18q-261 0 -382 24t-202 84t-119 164t-38 274v406q0 187 38 296q39 109 119 169t204 84t378 24h535q253 0 379 -24q126 -23 204 -83
q156 -118 156 -448v-415q0 -327 -156 -447q-79 -60 -202 -84t-381 -24h-533zM1343 1616h-192l-474 284h398z" />
    <glyph glyph-name="Oacute" unicode="&#xd3;" horiz-adv-x="2253" 
d="M983 354h289q241 0 320 60t79 225v211q0 164 -79 224t-320 61h-291q-247 0 -323 -61t-76 -232v-207q0 -161 80 -221t321 -60zM860 -18q-261 0 -382 24t-202 84t-119 164t-38 274v406q0 187 38 296q39 109 119 169t204 84t378 24h535q253 0 379 -24q126 -23 204 -83
q156 -118 156 -448v-415q0 -327 -156 -447q-79 -60 -202 -84t-381 -24h-533zM909 1616l268 284h398l-474 -284h-192z" />
    <glyph glyph-name="Ocircumflex" unicode="&#xd4;" horiz-adv-x="2253" 
d="M983 354h289q241 0 320 60t79 225v211q0 164 -79 224t-320 61h-291q-247 0 -323 -61t-76 -232v-207q0 -161 80 -221t321 -60zM860 -18q-261 0 -382 24t-202 84t-119 164t-38 274v406q0 187 38 296q39 109 119 169t204 84t378 24h535q253 0 379 -24q126 -23 204 -83
q156 -118 156 -448v-415q0 -327 -156 -447q-79 -60 -202 -84t-381 -24h-533zM698 1616l268 284h320l268 -284h-192l-236 149l-236 -149h-192z" />
    <glyph glyph-name="Otilde" unicode="&#xd5;" horiz-adv-x="2253" 
d="M983 354h289q241 0 320 60t79 225v211q0 164 -79 224t-320 61h-291q-247 0 -323 -61t-76 -232v-207q0 -161 80 -221t321 -60zM860 -18q-261 0 -382 24t-202 84t-119 164t-38 274v406q0 187 38 296q39 109 119 169t204 84t378 24h535q253 0 379 -24q126 -23 204 -83
q156 -118 156 -448v-415q0 -327 -156 -447q-79 -60 -202 -84t-381 -24h-533zM968 1859q42 0 94 -10l173 -33q34 -6 71 -6q90 0 117 72h137q-26 -110 -101 -172t-186 -62q-47 0 -81 9l-184 36q-15 4 -54 4q-101 0 -125 -71h-137q64 233 276 233z" />
    <glyph glyph-name="Odieresis" unicode="&#xd6;" horiz-adv-x="2253" 
d="M983 354h289q241 0 320 60t79 225v211q0 164 -79 224t-320 61h-291q-247 0 -323 -61t-76 -232v-207q0 -161 80 -221t321 -60zM860 -18q-261 0 -382 24t-202 84t-119 164t-38 274v406q0 187 38 296q39 109 119 169t204 84t378 24h535q253 0 379 -24q126 -23 204 -83
q156 -118 156 -448v-415q0 -327 -156 -447q-79 -60 -202 -84t-381 -24h-533zM723 1626v262h327v-262h-327zM1202 1626v262h327v-262h-327z" />
    <glyph glyph-name="multiply" unicode="&#xd7;" horiz-adv-x="1706" 
d="M430 1214l440 -440l441 440l162 -161l-441 -443l441 -440l-162 -162l-441 441l-440 -441l-162 162l441 440l-441 443z" />
    <glyph glyph-name="Oslash" unicode="&#xd8;" horiz-adv-x="2253" 
d="M1288 1145h-297q-252 0 -332.5 -64t-80.5 -239v-213q0 -75 12 -125l831 637q-38 4 -133 4zM1282 344q249 0 329.5 62t80.5 231v217q0 142 -47 197l-893 -691q60 -16 186 -16h344zM2142 950v-413q0 -327 -157 -447q-80 -61 -203 -84.5t-381 -23.5h-533q-382 0 -512 67
l-184 -145l-125 180l143 113q-63 159 -63 331v404q0 187 38.5 296.5t118.5 169.5t204.5 84.5t377.5 24.5h535q303 0 446 -41l187 150l125 -168l-125 -96q108 -130 108 -402z" />
    <glyph glyph-name="Ugrave" unicode="&#xd9;" horiz-adv-x="2150" 
d="M150 1489h454v-883q0 -150 68 -202t299 -52h258q191 0 256 54t65 200v883h455v-1024q1 -263 -141 -373t-490 -110h-508q-408 0 -562 105t-154 378v1024zM1292 1616h-192l-474 284h398z" />
    <glyph glyph-name="Uacute" unicode="&#xda;" horiz-adv-x="2150" 
d="M150 1489h454v-883q0 -150 68 -202t299 -52h258q191 0 256 54t65 200v883h455v-1024q1 -263 -141 -373t-490 -110h-508q-408 0 -562 105t-154 378v1024zM858 1616l268 284h398l-474 -284h-192z" />
    <glyph glyph-name="Ucircumflex" unicode="&#xdb;" horiz-adv-x="2150" 
d="M150 1489h454v-883q0 -150 68 -202t299 -52h258q191 0 256 54t65 200v883h455v-1024q1 -263 -141 -373t-490 -110h-508q-408 0 -562 105t-154 378v1024zM647 1616l268 284h320l268 -284h-192l-236 149l-236 -149h-192z" />
    <glyph glyph-name="Udieresis" unicode="&#xdc;" horiz-adv-x="2150" 
d="M150 1489h454v-883q0 -150 68 -202t299 -52h258q191 0 256 54t65 200v883h455v-1024q1 -263 -141 -373t-490 -110h-508q-408 0 -562 105t-154 378v1024zM672 1626v262h327v-262h-327zM1151 1626v262h327v-262h-327z" />
    <glyph glyph-name="Yacute" unicode="&#xdd;" horiz-adv-x="2103" 
d="M1270 0h-455v535l-821 954h559l489 -592l512 592h539l-823 -954v-535zM836 1616l268 284h398l-474 -284h-192z" />
    <glyph glyph-name="Thorn" unicode="&#xde;" horiz-adv-x="1997" 
d="M1298 1313q278 -1 393 -61q116 -60 167 -176.5t51 -321.5q0 -306 -102 -432.5t-345 -126.5h-850v-195h-456v1489h456v-176h686zM1282 942h-670v-377h670q90 0 127 43.5t37 145.5t-38.5 145t-125.5 43z" />
    <glyph glyph-name="germandbls" unicode="&#xdf;" horiz-adv-x="1651" 
d="M1171 559q0 121 -223 121h-207v258h187q84 0 123 32.5t39 104.5q0 142 -148 142h-186q-146 0 -187 -44t-41 -178v-995h-381v1055q0 240 122 343t413 103h326q244 0 352 -91.5t108 -297.5q0 -103 -37.5 -165t-123.5 -103q243 -65 243 -283v-190q0 -208 -112 -297.5
t-381 -89.5q-146 0 -318 16l1 297q112 -18 208 -18t159.5 39t63.5 106v135z" />
    <glyph glyph-name="agrave" unicode="&#xe0;" horiz-adv-x="1548" 
d="M608 821q-110 0 -110 -80h-381v13q-1 166 123 240t411 73h371q214 1 318 -85t104 -263v-719h-379v127q-112 -141 -492 -141q-289 0 -397 76t-108 274t112 273t433 75q322 0 452 -90v113q0 55 -38 85t-109 29h-310zM872 455h-231q-104 0 -146 -25q-42 -24 -42 -82
q1 -58 39 -80t149 -22h231q104 0 146 24t43 83q-1 58 -39 80t-150 22zM991 1176h-192l-474 284h398z" />
    <glyph glyph-name="aacute" unicode="&#xe1;" horiz-adv-x="1548" 
d="M608 821q-110 0 -110 -80h-381v13q-1 166 123 240t411 73h371q214 1 318 -85t104 -263v-719h-379v127q-112 -141 -492 -141q-289 0 -397 76t-108 274t112 273t433 75q322 0 452 -90v113q0 55 -38 85t-109 29h-310zM872 455h-231q-104 0 -146 -25q-42 -24 -42 -82
q1 -58 39 -80t149 -22h231q104 0 146 24t43 83q-1 58 -39 80t-150 22zM557 1176l268 284h398l-474 -284h-192z" />
    <glyph glyph-name="acircumflex" unicode="&#xe2;" horiz-adv-x="1548" 
d="M608 821q-110 0 -110 -80h-381v13q-1 166 123 240t411 73h371q214 1 318 -85t104 -263v-719h-379v127q-112 -141 -492 -141q-289 0 -397 76t-108 274t112 273t433 75q322 0 452 -90v113q0 55 -38 85t-109 29h-310zM872 455h-231q-104 0 -146 -25q-42 -24 -42 -82
q1 -58 39 -80t149 -22h231q104 0 146 24t43 83q-1 58 -39 80t-150 22zM346 1176l268 284h320l268 -284h-192l-236 149l-236 -149h-192z" />
    <glyph glyph-name="atilde" unicode="&#xe3;" horiz-adv-x="1548" 
d="M608 821q-110 0 -110 -80h-381v13q-1 166 123 240t411 73h371q214 1 318 -85t104 -263v-719h-379v127q-112 -141 -492 -141q-289 0 -397 76t-108 274t112 273t433 75q322 0 452 -90v113q0 55 -38 85t-109 29h-310zM872 455h-231q-104 0 -146 -25q-42 -24 -42 -82
q1 -58 39 -80t149 -22h231q104 0 146 24t43 83q-1 58 -39 80t-150 22zM616 1419q42 0 94 -10l173 -33q34 -6 71 -6q90 0 117 72h137q-26 -110 -101 -172t-186 -62q-47 0 -81 9l-184 36q-15 4 -54 4q-101 0 -125 -71h-137q64 233 276 233z" />
    <glyph glyph-name="adieresis" unicode="&#xe4;" horiz-adv-x="1548" 
d="M608 821q-110 0 -110 -80h-381v13q-1 166 123 240t411 73h371q214 1 318 -85t104 -263v-719h-379v127q-112 -141 -492 -141q-289 0 -397 76t-108 274t112 273t433 75q322 0 452 -90v113q0 55 -38 85t-109 29h-310zM872 455h-231q-104 0 -146 -25q-42 -24 -42 -82
q1 -58 39 -80t149 -22h231q104 0 146 24t43 83q-1 58 -39 80t-150 22zM371 1186v262h327v-262h-327zM850 1186v262h327v-262h-327z" />
    <glyph glyph-name="aring" unicode="&#xe5;" horiz-adv-x="1548" 
d="M608 821q-110 0 -110 -80h-381v13q0 166 123.5 239.5t410.5 73.5h371q215 0 318.5 -85.5t103.5 -262.5v-719h-379v127q-112 -141 -492 -141q-289 0 -397 76t-108 274t111.5 273t433.5 75t452 -90v113q0 55 -38 84.5t-109 29.5h-310zM872 455h-231q-104 0 -146 -24.5
t-42 -82.5t38.5 -80t149.5 -22h231q104 0 146.5 24.5t42.5 82.5t-38.5 80t-150.5 22zM797 1235q133 1 133 107t-133 106t-133 -106t133 -107zM1122 1342q0 -96 -83 -147.5t-241 -51.5t-242.5 51.5t-84.5 147.5t84.5 147t242.5 51t241 -51t83 -147z" />
    <glyph glyph-name="ae" unicode="&#xe6;" horiz-adv-x="2449" 
d="M1436 668h583v4q0 74 -48 105.5t-167 31.5h-153q-119 0 -167 -31.5t-48 -105.5v-4zM1614 -18q-266 0 -365 143q-54 -80 -162.5 -111.5t-344.5 -31.5t-330 9t-167 33t-115 103.5t-42 210.5q0 194 107.5 268t421.5 74t454 -90v117q0 54 -40 84t-111 30h-308
q-104 0 -108 -79l-369 -1v13q0 167 120 240t398 73h258q125 0 214.5 -41.5t131.5 -118.5q36 82 120.5 120t234.5 40h321q217 0 331 -104.5t114 -303.5v-225h-942l-2 -28q0 -93 51 -133t170 -40h157q116 0 154.5 25t50.5 92h361v-12q0 -187 -103 -270t-341 -86h-320zM893 455
h-231q-103 0 -146 -25.5t-43 -83.5t38.5 -80t150.5 -22h231q103 0 145.5 25.5t42.5 83.5t-38.5 80t-149.5 22z" />
    <glyph glyph-name="ccedilla" unicode="&#xe7;" horiz-adv-x="1597" 
d="M862 -324q39 0 39 41q1 23 -9 32t-34 9h-135q-29 0 -41 16t-12 60v152h-58q-268 0 -386 90t-117 297v286q-1 228 111 318t392 90h359q262 0 384 -87t122 -273q0 -46 -7 -86h-358v6q0 83 -48 119t-161 36h-186q-130 0 -179 -41t-49 -151v-135q1 -101 53 -143t175 -42h166
q143 0 187 36t44 136h377q2 -24 2 -65q1 -211 -117 -301t-399 -90h-178v-95h168q65 0 92 -33t27 -116v-53q0 -84 -27 -117t-94 -33h-436v137h333z" />
    <glyph glyph-name="egrave" unicode="&#xe8;" horiz-adv-x="1548" 
d="M487 666h584v4q1 75 -47 106t-166 31h-156q-118 1 -166 -31t-49 -106v-4zM711 236h159q123 0 160 24t49 90h357v-16q0 -184 -113 -266t-373 -82h-352q-238 0 -364 100t-125 287v286q-1 198 125 303t362 105h354q238 -1 363 -105t125 -303v-225h-951l-2 -28q1 -90 53 -130
t173 -40zM997 1176h-192l-474 284h398z" />
    <glyph glyph-name="eacute" unicode="&#xe9;" horiz-adv-x="1548" 
d="M487 666h584v4q1 75 -47 106t-166 31h-156q-118 1 -166 -31t-49 -106v-4zM711 236h159q123 0 160 24t49 90h357v-16q0 -184 -113 -266t-373 -82h-352q-238 0 -364 100t-125 287v286q-1 198 125 303t362 105h354q238 -1 363 -105t125 -303v-225h-951l-2 -28q1 -90 53 -130
t173 -40zM563 1176l268 284h398l-474 -284h-192z" />
    <glyph glyph-name="ecircumflex" unicode="&#xea;" horiz-adv-x="1548" 
d="M487 666h584v4q1 75 -47 106t-166 31h-156q-118 1 -166 -31t-49 -106v-4zM711 236h159q123 0 160 24t49 90h357v-16q0 -184 -113 -266t-373 -82h-352q-238 0 -364 100t-125 287v286q-1 198 125 303t362 105h354q238 -1 363 -105t125 -303v-225h-951l-2 -28q1 -90 53 -130
t173 -40zM352 1176l268 284h320l268 -284h-192l-236 149l-236 -149h-192z" />
    <glyph glyph-name="edieresis" unicode="&#xeb;" horiz-adv-x="1548" 
d="M487 666h584v4q1 75 -47 106t-166 31h-156q-118 1 -166 -31t-49 -106v-4zM711 236h159q123 0 160 24t49 90h357v-16q0 -184 -113 -266t-373 -82h-352q-238 0 -364 100t-125 287v286q-1 198 125 303t362 105h354q238 -1 363 -105t125 -303v-225h-951l-2 -28q1 -90 53 -130
t173 -40zM377 1186v262h327v-262h-327zM856 1186v262h327v-262h-327z" />
    <glyph glyph-name="igrave" unicode="&#xec;" horiz-adv-x="696" 
d="M539 0h-379v1053h379v-1053zM565 1176h-192l-474 284h398z" />
    <glyph glyph-name="iacute" unicode="&#xed;" horiz-adv-x="696" 
d="M539 0h-379v1053h379v-1053zM131 1176l268 284h398l-474 -284h-192z" />
    <glyph glyph-name="icircumflex" unicode="&#xee;" horiz-adv-x="696" 
d="M539 0h-379v1053h379v-1053zM-80 1176l268 284h320l268 -284h-192l-236 149l-236 -149h-192z" />
    <glyph glyph-name="idieresis" unicode="&#xef;" horiz-adv-x="696" 
d="M539 0h-379v1053h379v-1053zM-55 1186v262h327v-262h-327zM424 1186v262h327v-262h-327z" />
    <glyph glyph-name="eth" unicode="&#xf0;" horiz-adv-x="1647" 
d="M635 -14q-285 0 -405.5 86t-120.5 284v277q0 216 118 303.5t406 87.5h164q153 0 270 -88l-248 256l-463 -66l-24 177l338 45l-138 143h410l88 -90l369 53l26 -180l-235 -33l162 -156q108 -103 147 -202t39 -262v-256q0 -206 -118.5 -292.5t-405.5 -86.5h-379zM735 272
h178q136 0 191 39t55 131v127q0 93 -56.5 132.5t-189.5 39.5h-178q-141 0 -194.5 -38t-53.5 -138v-125q0 -91 56 -129.5t192 -38.5z" />
    <glyph glyph-name="ntilde" unicode="&#xf1;" horiz-adv-x="1651" 
d="M999 1063q514 0 514 -383v-680h-378v530q0 140 -63 184q-62 44 -234 44t-242 -58t-70 -192v-508h-379v1047h379v-162q64 97 166 137t307 41zM688 1419q42 0 94 -10l173 -33q34 -6 71 -6q90 0 117 72h137q-26 -110 -101 -172t-186 -62q-47 0 -81 9l-184 36q-15 4 -54 4
q-101 0 -125 -71h-137q64 233 276 233z" />
    <glyph glyph-name="ograve" unicode="&#xf2;" horiz-adv-x="1647" 
d="M635 -14q-284 0 -405 90t-121 297v286q0 225 118 317t406 91h381q280 -1 402 -93t122 -302v-293q0 -213 -119 -303t-405 -90h-379zM735 270h178q136 0 191 42t55 145v139q0 102 -56 144t-190 42h-178q-141 0 -195 -42t-53 -150v-135q1 -101 57 -143t191 -42zM1040 1176
h-192l-474 284h398z" />
    <glyph glyph-name="oacute" unicode="&#xf3;" horiz-adv-x="1647" 
d="M635 -14q-284 0 -405 90t-121 297v286q0 225 118 317t406 91h381q280 -1 402 -93t122 -302v-293q0 -213 -119 -303t-405 -90h-379zM735 270h178q136 0 191 42t55 145v139q0 102 -56 144t-190 42h-178q-141 0 -195 -42t-53 -150v-135q1 -101 57 -143t191 -42zM606 1176
l268 284h398l-474 -284h-192z" />
    <glyph glyph-name="ocircumflex" unicode="&#xf4;" horiz-adv-x="1647" 
d="M635 -14q-284 0 -405 90t-121 297v286q0 225 118 317t406 91h381q280 -1 402 -93t122 -302v-293q0 -213 -119 -303t-405 -90h-379zM735 270h178q136 0 191 42t55 145v139q0 102 -56 144t-190 42h-178q-141 0 -195 -42t-53 -150v-135q1 -101 57 -143t191 -42zM395 1176
l268 284h320l268 -284h-192l-236 149l-236 -149h-192z" />
    <glyph glyph-name="otilde" unicode="&#xf5;" horiz-adv-x="1647" 
d="M635 -14q-284 0 -405 90t-121 297v286q0 225 118 317t406 91h381q280 -1 402 -93t122 -302v-293q0 -213 -119 -303t-405 -90h-379zM735 270h178q136 0 191 42t55 145v139q0 102 -56 144t-190 42h-178q-141 0 -195 -42t-53 -150v-135q1 -101 57 -143t191 -42zM665 1419
q42 0 94 -10l173 -33q34 -6 71 -6q90 0 117 72h137q-26 -110 -101 -172t-186 -62q-47 0 -81 9l-184 36q-15 4 -54 4q-101 0 -125 -71h-137q64 233 276 233z" />
    <glyph glyph-name="odieresis" unicode="&#xf6;" horiz-adv-x="1647" 
d="M635 -14q-284 0 -405 90t-121 297v286q0 225 118 317t406 91h381q280 -1 402 -93t122 -302v-293q0 -213 -119 -303t-405 -90h-379zM735 270h178q136 0 191 42t55 145v139q0 102 -56 144t-190 42h-178q-141 0 -195 -42t-53 -150v-135q1 -101 57 -143t191 -42zM420 1186
v262h327v-262h-327zM899 1186v262h327v-262h-327z" />
    <glyph glyph-name="divide" unicode="&#xf7;" horiz-adv-x="1706" 
d="M854 1182q68 0 116 -49t48 -117t-48.5 -116t-117.5 -48t-116.5 48t-47.5 116t49 117t117 49zM254 727h1198v-231h-1198v231zM854 371q68 0 116 -48.5t48 -116.5t-47.5 -116.5t-116.5 -48.5t-117.5 48t-48.5 116t49 117t117 49z" />
    <glyph glyph-name="oslash" unicode="&#xf8;" horiz-adv-x="1647" 
d="M1546 672v-293q0 -212 -119.5 -302.5t-406.5 -90.5h-379q-261 0 -379 69l-153 -106l-107 153l139 99q-26 96 -26 170v288q0 224 118.5 315t407.5 91h379q223 0 321 -47l158 106l103 -151l-109 -74q53 -71 53 -227zM928 788h-187q-145 0 -200.5 -43.5t-55.5 -156.5v-154
l512 350q-40 4 -69 4zM737 262h185q141 0 198.5 44t57.5 149v145q0 32 -11 76l-577 -395q55 -19 147 -19z" />
    <glyph glyph-name="ugrave" unicode="&#xf9;" horiz-adv-x="1651" 
d="M1124 1053h379v-1053h-379v162q-63 -96 -164 -136q-102 -40 -338 -40q-488 0 -487 393v674h379v-537q0 -136 61 -180t235 -45q174 1 244 55t70 193v514zM1032 1176h-192l-474 284h398z" />
    <glyph glyph-name="uacute" unicode="&#xfa;" horiz-adv-x="1651" 
d="M1124 1053h379v-1053h-379v162q-63 -96 -164 -136q-102 -40 -338 -40q-488 0 -487 393v674h379v-537q0 -136 61 -180t235 -45q174 1 244 55t70 193v514zM598 1176l268 284h398l-474 -284h-192z" />
    <glyph glyph-name="ucircumflex" unicode="&#xfb;" horiz-adv-x="1651" 
d="M1124 1053h379v-1053h-379v162q-63 -96 -164 -136q-102 -40 -338 -40q-488 0 -487 393v674h379v-537q0 -136 61 -180t235 -45q174 1 244 55t70 193v514zM387 1176l268 284h320l268 -284h-192l-236 149l-236 -149h-192z" />
    <glyph glyph-name="udieresis" unicode="&#xfc;" horiz-adv-x="1651" 
d="M1124 1053h379v-1053h-379v162q-63 -96 -164 -136q-102 -40 -338 -40q-488 0 -487 393v674h379v-537q0 -136 61 -180t235 -45q174 1 244 55t70 193v514zM412 1186v262h327v-262h-327zM891 1186v262h327v-262h-327z" />
    <glyph glyph-name="yacute" unicode="&#xfd;" horiz-adv-x="1452" 
d="M504 -356q-88 0 -172 8v249q58 -5 82 -5q92 0 142 37t69 118h-142l-460 1002h417l293 -684l303 684h414l-526 -1135q-80 -173 -168 -223q-87 -51 -252 -51zM510 1176l268 284h398l-474 -284h-192z" />
    <glyph glyph-name="thorn" unicode="&#xfe;" horiz-adv-x="1659" 
d="M147 1489h379v-629q12 112 117.5 159.5t381.5 47.5t400.5 -80t124.5 -272v-348q0 -192 -130 -278.5t-396 -86.5t-367 42t-131 146v-546h-379v1845zM932 776h-172q-131 0 -185.5 -40t-54.5 -136v-127q0 -105 51.5 -144.5t188.5 -39.5h172q129 0 184 41t55 137v131
q0 96 -54 137t-185 41z" />
    <glyph glyph-name="ydieresis" unicode="&#xff;" horiz-adv-x="1452" 
d="M504 -356q-88 0 -172 8v249q58 -5 82 -5q92 0 142 37t69 118h-142l-460 1002h417l293 -684l303 684h414l-526 -1135q-80 -173 -168 -223q-87 -51 -252 -51zM324 1186v262h327v-262h-327zM803 1186v262h327v-262h-327z" />
    <glyph glyph-name="Cacute" unicode="&#x106;" horiz-adv-x="2150" 
d="M2034 1075q0 -99 -3 -123h-456v15q1 87 -57 127t-183 41h-364q-235 -1 -301 -57t-66 -236v-207q0 -161 74 -221t293 -60h264q217 0 285 44t67 161v16h461l4 -108q0 -277 -149 -385q-73 -54 -195 -77t-356 -23h-508q-233 0 -343 25t-194 91q-166 129 -166 430v406
q0 320 152 446t551 127h508q245 0 361 -22t185 -75q68 -52 102 -144t34 -191zM873 1616l268 284h398l-474 -284h-192z" />
    <glyph glyph-name="cacute" unicode="&#x107;" horiz-adv-x="1597" 
d="M1493 377q1 -211 -117 -301t-399 -90h-365q-268 0 -386 90t-117 297v286q-1 228 111 318t392 90h359q262 0 384 -87t122 -273q0 -46 -7 -86h-358v6q0 83 -48 119t-161 36h-186q-130 0 -179 -41t-49 -151v-135q1 -101 53 -143t175 -42h166q143 0 187 36t44 136h377
q2 -24 2 -65zM590 1176l268 284h398l-474 -284h-192z" />
    <glyph glyph-name="Ccaron" unicode="&#x10c;" horiz-adv-x="2150" 
d="M2034 1075q0 -99 -3 -123h-456v15q1 87 -57 127t-183 41h-364q-235 -1 -301 -57t-66 -236v-207q0 -161 74 -221t293 -60h264q217 0 285 44t67 161v16h461l4 -108q0 -277 -149 -385q-73 -54 -195 -77t-356 -23h-508q-233 0 -343 25t-194 91q-166 129 -166 430v406
q0 320 152 446t551 127h508q245 0 361 -22t185 -75q68 -52 102 -144t34 -191zM662 1898h192l236 -147l236 147h192l-268 -282h-320z" />
    <glyph glyph-name="ccaron" unicode="&#x10d;" horiz-adv-x="1597" 
d="M1493 377q1 -211 -117 -301t-399 -90h-365q-268 0 -386 90t-117 297v286q-1 228 111 318t392 90h359q262 0 384 -87t122 -273q0 -46 -7 -86h-358v6q0 83 -48 119t-161 36h-186q-130 0 -179 -41t-49 -151v-135q1 -101 53 -143t175 -42h166q143 0 187 36t44 136h377
q2 -24 2 -65zM379 1458h192l236 -147l236 147h192l-268 -282h-320z" />
    <glyph glyph-name="dcroat" unicode="&#x111;" horiz-adv-x="1663" 
d="M1133 1337v152h378v-152h209v-180h-209v-1157h-378v188q-13 -112 -117 -159t-380 -47t-401.5 80t-125.5 272v325q0 193 128.5 279t396.5 86t367.5 -42t131.5 -146v321h-478v180h478zM899 272q131 0 185.5 40.5t54.5 136.5v104q0 105 -52 144.5t-188 39.5h-172
q-129 0 -184.5 -41t-55.5 -137v-108q0 -97 53.5 -138t186.5 -41h172z" />
    <glyph glyph-name="Gbreve" unicode="&#x11e;" horiz-adv-x="2154" 
d="M1563 512l-4 45h-535v301h1008v-489q0 -211 -156 -299t-541 -88h-506q-233 0 -344 25t-195 91q-166 130 -165 430v406q-1 320 151 446t551 127h508q246 0 363 -22q118 -22 186 -75q68 -52 102 -144t33 -188q0 -96 -2 -126h-456v4q0 103 -62 141t-280 38h-265
q-232 0 -298 -56t-66 -237v-207q0 -161 74 -221t292 -60h263q196 0 270 36t74 122zM1078 1616q-198 0 -302 69t-125 215h178q29 -123 251 -123q221 0 243 123h178q-21 -148 -123 -216t-300 -68z" />
    <glyph glyph-name="gbreve" unicode="&#x11f;" horiz-adv-x="1653" 
d="M737 80q-360 0 -485 74t-125 264v289q0 190 127 275t412 85q202 0 314 -42t155 -132v160h378v-1049q-1 -172 -133 -266t-379 -94h-350q-321 0 -423 66t-103 245v16h379q4 -46 44 -64t154 -18h216q116 1 168 53t53 171q0 17 -2 39t-2 26q-31 -54 -119 -76t-279 -22z
M901 342q127 0 181 40t53 132v121q0 89 -54 127t-180 39h-168q-133 1 -183 -37t-50 -135v-117q0 -89 52 -127t182 -43h167zM828 1176q-198 0 -302 69t-125 215h178q29 -123 251 -123q221 0 243 123h178q-21 -148 -123 -216t-300 -68z" />
    <glyph glyph-name="Idotaccent" unicode="&#x130;" horiz-adv-x="795" 
d="M625 0h-455v1489h455v-1489zM227 1620v272h340v-272h-340z" />
    <glyph glyph-name="dotlessi" unicode="&#x131;" horiz-adv-x="696" 
d="M539 0h-379v1053h379v-1053z" />
    <glyph glyph-name="Lslash" unicode="&#x141;" horiz-adv-x="1669" 
d="M651 360h991v-360h-1445v530l-197 -118v272l197 119v686h454v-498l518 312v-273l-518 -313v-357z" />
    <glyph glyph-name="lslash" unicode="&#x142;" horiz-adv-x="717" 
d="M168 0v580l-191 -119v213l191 119v696h379v-545l198 123v-213l-198 -123v-731h-379z" />
    <glyph glyph-name="OE" unicode="&#x152;" horiz-adv-x="2693" 
d="M1055 -18h-289q-240 0 -355 23t-192 83t-113 163t-36 273v406q0 186 35.5 295t111.5 169t193.5 83.5t353.5 23.5h291q144 0 226.5 -45.5t133.5 -152.5v184h1217v-361h-828v-225h801v-313h-801v-228h828v-360h-1217v166q-60 -102 -137 -143t-223 -41zM1059 1130h-242
q-193 0 -255 -60t-62 -232v-207q0 -160 64 -219.5t253 -59.5h242q182 0 243.5 53t61.5 195v248q0 168 -59.5 225t-245.5 57z" />
    <glyph glyph-name="oe" unicode="&#x153;" horiz-adv-x="2550" 
d="M727 295h178q137 0 191.5 39.5t54.5 134.5v131q0 94 -56.5 134t-189.5 40h-178q-142 0 -195 -39t-53 -141v-129q0 -93 55.5 -131.5t192.5 -38.5zM1526 674h583v4q0 75 -47.5 106t-165.5 31h-155q-118 0 -166.5 -31.5t-48.5 -105.5v-4zM1753 233h158q115 0 154 25t51 92
h360v-16q0 -185 -105 -266.5t-346 -81.5h-327q-171 0 -254.5 38t-110.5 126q-48 -91 -135 -127.5t-280 -36.5h-343q-256 0 -364.5 89t-108.5 296v286q0 224 106.5 315t367.5 93h342q182 0 273.5 -29t141.5 -98q114 127 363 127h329q223 0 338 -103.5t115 -302.5v-225h-946
l-2 -28q0 -92 52 -132.5t171 -40.5z" />
    <glyph glyph-name="Scedilla" unicode="&#x15e;" horiz-adv-x="2097" 
d="M1112 -324q39 0 39 41q1 23 -9 32t-34 9h-135q-29 0 -41 16t-12 60v148h-168q-373 0 -499 84t-126 311q0 30 6 118l449 1v-27q0 -83 41 -113t172 -30h571q84 0 120 28t36 96q0 66 -42 95t-178 39l-714 16q-268 8 -362 102t-95 340q0 246 105 351q65 62 170 88t342 26h694
q258 0 372 -94t113 -305q0 -34 -4 -82h-438v6q0 148 -150 148h-524q-131 0 -173 -26t-42 -90t38 -94q38 -28 140 -36l748 -12q256 -7 360 -115t105 -369q-1 -155 -39 -240t-114 -134q-76 -50 -178 -66q-103 -16 -298 -16h-309v-91h168q65 0 92 -33t27 -116v-53
q0 -84 -27 -117t-94 -33h-436v137h333z" />
    <glyph glyph-name="scedilla" unicode="&#x15f;" horiz-adv-x="1593" 
d="M860 -324q39 0 39 41q1 23 -9 32t-34 9h-135q-29 0 -41 16t-12 60v152h-17q-326 0 -441 76t-118 271l402 1v-4q0 -50 49 -72t157 -22h277q83 0 117 18t34 61t-36 63t-119 25l-375 7q-284 1 -393 73t-109 249t118 256t396 79h430q206 0 305 -76t101 -235h-379
q-28 61 -188 61h-265q-76 1 -106 -15t-31 -52q0 -36 32 -53q32 -16 146 -23h463q203 -4 297 -84t94 -262q-1 -182 -105 -262t-368 -80h-239v-95h168q65 0 92 -33t27 -116v-53q0 -84 -27 -117t-94 -33h-436v137h333z" />
    <glyph glyph-name="Scaron" unicode="&#x160;" horiz-adv-x="2097" 
d="M1485 1032q0 148 -150 148h-524q-131 0 -173 -26t-42 -90t38 -94q38 -28 140 -36l748 -12q256 -7 360 -115t105 -369q-1 -155 -39 -240t-114 -134q-76 -50 -178 -66q-103 -16 -298 -16h-606q-373 0 -499 84t-126 311q0 30 6 118l449 1v-27q0 -83 41 -113t172 -30h571
q84 0 120 28t36 96q0 66 -42 95t-178 39l-714 16q-268 8 -362 102t-95 340q0 246 105 351q65 62 170 88t342 26h694q258 0 372 -94t113 -305q0 -34 -4 -82h-438v6zM621 1898h192l236 -147l236 147h192l-268 -282h-320z" />
    <glyph glyph-name="scaron" unicode="&#x161;" horiz-adv-x="1593" 
d="M614 817q-76 1 -106 -15t-31 -52q0 -36 32 -53q32 -16 146 -23h463q203 -4 297 -84t94 -262q-1 -182 -105 -262t-368 -80h-385q-326 0 -441 76t-118 271l402 1v-4q0 -50 49 -72t157 -22h277q83 0 117 18t34 61t-36 63t-119 25l-375 7q-284 1 -393 73t-109 249t118 256
t396 79h430q206 0 305 -76t101 -235h-379q-28 61 -188 61h-265zM369 1458h192l236 -147l236 147h192l-268 -282h-320z" />
    <glyph glyph-name="Ydieresis" unicode="&#x178;" horiz-adv-x="2103" 
d="M1270 0h-455v535l-821 954h559l489 -592l512 592h539l-823 -954v-535zM650 1626v262h327v-262h-327zM1129 1626v262h327v-262h-327z" />
    <glyph glyph-name="Zcaron" unicode="&#x17d;" horiz-adv-x="1901" 
d="M1829 0h-1751v365l1061 763h-1022v361h1687v-361l-1054 -763h1079v-365zM522 1898h192l236 -147l236 147h192l-268 -282h-320z" />
    <glyph glyph-name="zcaron" unicode="&#x17e;" horiz-adv-x="1296" 
d="M1245 0h-1190v266l637 498h-600v289h1133v-291l-602 -475h622v-287zM221 1458h192l236 -147l236 147h192l-268 -282h-320z" />
    <glyph glyph-name="florin" unicode="&#x192;" horiz-adv-x="2001" 
d="M435 -25q118 0 184.5 49t95.5 171l88 362h-418v309h494l59 248q51 210 186 302.5t394 92.5q140 0 358 -32v-338q-199 39 -308 39q-213 0 -255 -187l-29 -125h485v-309h-552l-95 -430q-49 -232 -221 -359.5t-434 -127.5q-109 0 -309 34v344q159 -43 277 -43z" />
    <glyph glyph-name="circumflex" unicode="&#x2c6;" 
d="M84 1176l268 284h320l268 -284h-192l-236 149l-236 -149h-192z" />
    <glyph glyph-name="caron" unicode="&#x2c7;" 
d="M84 1458h192l236 -147l236 147h192l-268 -282h-320z" />
    <glyph glyph-name="breve" unicode="&#x2d8;" 
d="M512 1176q-198 0 -301.5 69t-124.5 215h178q29 -123 251 -123q221 0 243 123h178q-21 -147 -123.5 -215.5t-300.5 -68.5z" />
    <glyph glyph-name="dotaccent" unicode="&#x2d9;" 
d="M342 1180v272h340v-272h-340z" />
    <glyph glyph-name="ring" unicode="&#x2da;" 
d="M860 1372q0 -102 -89.5 -156.5t-256.5 -54.5t-257.5 55.5t-90.5 156.5t90 155.5t258 54.5t257 -54.5t89 -156.5zM373 1372q0 -108 140 -108t140 108q0 113 -140 113t-140 -113z" />
    <glyph glyph-name="ogonek" unicode="&#x2db;" 
d="M340 -446q-109 0 -109 114v43q0 84 72 135l219 154h162l-203 -186q-26 -24 -26 -54t41 -30h309v-176h-465z" />
    <glyph glyph-name="tilde" unicode="&#x2dc;" 
d="M354 1419q42 0 94 -10l173 -33q34 -6 71 -6q90 0 117 72h137q-26 -111 -101 -172.5t-186 -61.5q-47 0 -81 9l-184 36q-15 4 -54 4q-101 0 -125 -71h-137q64 233 276 233z" />
    <glyph glyph-name="hungarumlaut" unicode="&#x2dd;" 
d="M143 1174l176 282h338l-383 -282h-131zM553 1174l219 282h356l-428 -282h-147z" />
    <glyph glyph-name="Omega" unicode="&#x3a9;" horiz-adv-x="1645" 
d="M1534 836q0 -336 -268 -529h333v-307h-636v352q92 82 142 196.5t50 246.5q0 182 -89.5 288.5t-243.5 106.5t-244.5 -107.5t-90.5 -289.5q0 -132 50 -246.5t143 -194.5v-352h-635v307h332q-268 193 -268 529q0 303 195.5 489t517.5 186t517 -185t195 -490z" />
    <glyph glyph-name="pi" unicode="&#x3c0;" horiz-adv-x="1530" 
d="M348 858q-42 0 -70.5 -35.5t-36.5 -97.5h-235q33 209 124.5 287t311.5 78h1096l-39 -232h-178l-135 -858h-357l134 858h-232l-135 -858h-354l133 858h-27z" />
    <glyph glyph-name="endash" unicode="&#x2013;" 
d="M1024 410h-1024v249h1024v-249z" />
    <glyph glyph-name="emdash" unicode="&#x2014;" horiz-adv-x="2048" 
d="M0 410v249h2048v-249h-2048z" />
    <glyph glyph-name="quoteleft" unicode="&#x2018;" horiz-adv-x="999" 
d="M645 1505q63 0 135 -6v-227h-28q-76 0 -111 -22.5t-35 -71.5v-93h111v-395h-432v498q0 169 84 243t276 74z" />
    <glyph glyph-name="quoteright" unicode="&#x2019;" horiz-adv-x="999" 
d="M250 907q145 0 145 92v95h-110v395h432v-498q0 -170 -85.5 -244.5t-279.5 -74.5q-63 0 -133 6v229h31z" />
    <glyph glyph-name="quotesinglbase" unicode="&#x201a;" horiz-adv-x="999" 
d="M250 -162q145 0 145 94v93h-110v395h432v-498q0 -170 -85.5 -244.5t-279.5 -74.5q-63 0 -133 6v229h31z" />
    <glyph glyph-name="quotedblleft" unicode="&#x201c;" horiz-adv-x="1606" 
d="M1354 1270q-146 0 -146 -92v-93h111v-395h-430v496q0 170 85 244.5t277 74.5q65 0 133 -6v-229h-30zM750 1270q-146 0 -146 -92v-93h111v-395h-430v496q0 170 84.5 244.5t277.5 74.5q65 0 133 -6v-229h-30z" />
    <glyph glyph-name="quotedblright" unicode="&#x201d;" horiz-adv-x="1606" 
d="M250 907q145 0 145 92v95h-110v395h430v-498q0 -170 -85 -244.5t-278 -74.5q-63 0 -133 6v229h31zM889 1094v395h430v-498q0 -170 -85 -244.5t-278 -74.5q-64 0 -132 6l-1 229h31q75 0 109 22t34 70v95h-108z" />
    <glyph glyph-name="quotedblbase" unicode="&#x201e;" horiz-adv-x="1606" 
d="M250 -162q145 0 145 94v93h-110v395h430v-498q0 -170 -85 -244.5t-278 -74.5q-63 0 -133 6v229h31zM889 25v395h430v-498q0 -170 -85 -244.5t-278 -74.5q-64 0 -132 6l-1 229h29q76 0 110.5 22.5t34.5 71.5v93h-108z" />
    <glyph glyph-name="dagger" unicode="&#x2020;" horiz-adv-x="1493" 
d="M915 0h-333v823h-447v299h447v367h333v-367h443v-299h-443v-823z" />
    <glyph glyph-name="daggerdbl" unicode="&#x2021;" horiz-adv-x="1493" 
d="M915 0h-333v276h-394v299h394v359h-394v301h394v254h333v-254h390v-301h-390v-359h390v-299h-390v-276z" />
    <glyph glyph-name="bullet" unicode="&#x2022;" horiz-adv-x="1208" 
d="M307 762q0 123 87.5 209t209.5 86t208.5 -86.5t86.5 -208.5t-87.5 -209.5t-209.5 -87.5t-208.5 87t-86.5 210z" />
    <glyph glyph-name="ellipsis" unicode="&#x2026;" horiz-adv-x="2048" 
d="M553 0h-422v422h422v-422zM1235 0h-422v422h422v-422zM1919 0h-422v422h422v-422z" />
    <glyph glyph-name="perthousand" unicode="&#x2030;" horiz-adv-x="3752" 
d="M2220 897q148 0 215.5 -78t67.5 -250v-268q0 -165 -69.5 -242t-217.5 -77h-395q-161 0 -229 73.5t-68 245.5v268q0 173 68 250.5t218 77.5h410zM2087 674h-152q-87 0 -121 -37.5t-34 -136.5v-129q0 -92 32.5 -128t122.5 -36h152q90 0 125 36.5t35 127.5v129
q0 97 -34.5 135.5t-125.5 38.5zM1167 -18h-192l498 1525h190zM3338 897q148 0 214.5 -77.5t66.5 -250.5v-268q0 -165 -69.5 -242t-217.5 -77h-395q-161 0 -229 73.5t-68 245.5v268q0 173 68 250.5t219 77.5h411zM3205 674h-153q-88 0 -122 -37.5t-34 -136.5v-129
q0 -92 32.5 -128t123.5 -36h153q90 0 124 36t34 128v129q0 97 -33.5 135.5t-124.5 38.5zM829 1507q148 0 215.5 -78t67.5 -249v-271q0 -165 -69 -242t-218 -77h-395q-161 0 -229 73.5t-68 245.5v271q0 172 68 249.5t219 77.5h409zM696 1284h-151q-87 0 -121.5 -37.5
t-34.5 -136.5v-129q0 -92 33 -129t123 -37h151q90 0 125 37t35 129v129q0 97 -34 135.5t-126 38.5z" />
    <glyph glyph-name="guilsinglleft" unicode="&#x2039;" horiz-adv-x="709" 
d="M627 852l-236 -322l236 -313h-312l-233 313l233 322h312z" />
    <glyph glyph-name="guilsinglright" unicode="&#x203a;" horiz-adv-x="709" 
d="M80 852h311l236 -322l-236 -313h-311l235 313z" />
    <glyph glyph-name="franc" unicode="&#x20a3;" horiz-adv-x="3144" 
d="M1776 1126h-1172v-266h1104v-360h-1104v-500h-454v1489h1626v-363zM2724 1069q219 0 311 -93t92 -312q0 -32 -4 -99v-6h-334v16q1 93 -51 137t-162 44t-174 -52t-63 -143v-561h-379v1053h379v-197q56 113 146 163t239 50z" />
    <glyph glyph-name="trademark" unicode="&#x2122;" horiz-adv-x="1706" 
d="M188 1464h502v-127h-164v-424h-174v424h-164v127zM797 1464h223l113 -303l114 303h221v-551h-155v390l-146 -390h-65l-150 390v-390h-155v551z" />
    <glyph glyph-name="partialdiff" unicode="&#x2202;" horiz-adv-x="1114" 
d="M332 274q0 -223 143 -223q97 0 160 135.5t63 345.5q0 114 -36.5 176t-104.5 62q-96 0 -160.5 -136.5t-64.5 -359.5zM809 1021q0 106 -29.5 167t-66.5 61t-134 -93t-180 -93q-48 0 -80 33.5t-32 83.5q0 69 93 125.5t220 56.5q210 0 332.5 -161t122.5 -441
q0 -344 -162.5 -564.5t-417.5 -220.5q-182 0 -299 116.5t-117 309.5t119.5 326t298.5 133q101 0 170.5 -42.5t118.5 -133.5q43 231 43 337z" />
    <glyph glyph-name="Delta" unicode="&#x2206;" horiz-adv-x="1468" 
d="M537 1473h395l541 -1473h-1475zM733 1059l-262 -774h526z" />
    <glyph glyph-name="product" unicode="&#x220f;" horiz-adv-x="1645" 
d="M145 1473h1348v-1866h-399v1532h-549v-1532h-400v1866z" />
    <glyph glyph-name="summation" unicode="&#x2211;" horiz-adv-x="1520" 
d="M72 1473h1335v-302h-838l596 -608l-587 -651h895v-305h-1424v184l684 756l-661 665v261z" />
    <glyph glyph-name="minus" unicode="&#x2212;" horiz-adv-x="1706" 
d="M254 729h1198v-235h-1198v235z" />
    <glyph glyph-name="fraction" unicode="&#x2215;" horiz-adv-x="342" 
d="M487 1507h195l-829 -1525h-195z" />
    <glyph glyph-name="periodcentered" unicode="&#x2219;" horiz-adv-x="999" 
d="M270 748q0 96 67 162.5t163 66.5t162.5 -67t66.5 -162t-66.5 -162.5t-162.5 -67.5t-163 67t-67 163z" />
    <glyph glyph-name="radical" unicode="&#x221a;" horiz-adv-x="1366" 
d="M1370 1714v-149h-96l-590 -1606h-119l-307 846l-145 -55l-37 129l360 127l223 -635l496 1343h215z" />
    <glyph glyph-name="infinity" unicode="&#x221e;" horiz-adv-x="1706" 
d="M195 612q0 184 87.5 301t227.5 117q90 0 166.5 -56.5t175.5 -199.5q139 258 324 258q140 0 238.5 -121t98.5 -305t-87.5 -302t-227.5 -118q-91 0 -166 55t-176 201q-134 -256 -324 -256q-139 0 -238 121t-99 305zM518 791q-90 0 -146.5 -50t-56.5 -128t51 -128.5
t125 -50.5t135 52.5t126 170.5q-86 134 -234 134zM1393 605q0 78 -51.5 128.5t-125.5 50.5t-133.5 -50.5t-126.5 -172.5q87 -135 234 -135q90 0 146.5 50.5t56.5 128.5z" />
    <glyph glyph-name="integral" unicode="&#x222b;" horiz-adv-x="1249" 
d="M330 -178l-2 -27q0 -43 34 -43q108 0 123 821q17 523 130.5 753t349.5 230q105 0 170 -53t65 -127t-41 -113.5t-106 -39.5q-129 0 -129 151q0 38 -7.5 49t-25.5 11q-101 0 -124 -667l-8 -240q-13 -381 -79 -558q-128 -342 -393 -342q-107 0 -171.5 52t-64.5 128t42 115
t107 39q130 0 130 -139z" />
    <glyph glyph-name="approxequal" unicode="&#x2248;" horiz-adv-x="1706" 
d="M1155 647q-91 0 -284 64.5t-293 64.5t-188.5 -36t-211.5 -122v256q215 142 404 142q115 0 304.5 -65.5t310 -65.5t333.5 151v-254q-206 -135 -375 -135zM561 342q-157 0 -383 -158v254q216 144 404 144q115 0 304.5 -65.5t310 -65.5t333.5 151v-254q-203 -137 -335 -137
t-325 65.5t-309 65.5z" />
    <glyph glyph-name="notequal" unicode="&#x2260;" horiz-adv-x="1706" 
d="M1452 946v-221h-377l-180 -227h557v-222h-704l-246 -307l-170 137l135 170h-213v222h360l183 227h-543v221h694l246 305l168 -137l-135 -168h225z" />
    <glyph glyph-name="lessequal" unicode="&#x2264;" horiz-adv-x="1706" 
d="M1450 1257v-239l-776 -240l776 -239v-240l-1194 379v201zM256 213h1196v-229h-1196v229z" />
    <glyph glyph-name="greaterequal" unicode="&#x2265;" horiz-adv-x="1706" 
d="M258 1257l1192 -378v-201l-1192 -379v240l776 239l-776 240v239zM256 213h1196v-229h-1196v229z" />
    <glyph glyph-name="lozenge" unicode="&#x25ca;" horiz-adv-x="1012" 
d="M506 1653l500 -1061l-500 -1069l-500 1069zM506 1409l-385 -817l385 -825l385 825z" />
    <glyph glyph-name="apple" unicode="&#xf000;" horiz-adv-x="1618" 
d="M1272 741q0 -113 60 -200t173 -138q-114 -247 -205 -342.5t-204 -95.5q-50 0 -131.5 33t-124.5 33t-129.5 -33t-138.5 -33t-116 44t-148 158t-139.5 269.5t-55.5 300.5q0 219 125 356.5t323 137.5q68 0 154.5 -34t122.5 -34t123 35t175 35q194 0 337 -164
q-201 -128 -201 -328zM834 1253q0 124 95 229.5t236 131.5q2 -20 2 -62q0 -131 -103.5 -234.5t-203.5 -103.5h-8l-16 2q-2 12 -2 37z" />
    <glyph glyph-name="fi" unicode="&#xf001;" horiz-adv-x="1565" 
d="M1427 0h-378v1053h378v-1053zM1049 1180v309h378v-309h-378zM598 1083q0 -20 2 -30h322v-287h-322v-766h-381v766h-184v287h184v34q0 219 104 308.5t363 89.5h236v-262h-11q-59 4 -84 4q-122 0 -175.5 -34t-53.5 -110z" />
    <glyph glyph-name="fl" unicode="&#xf002;" horiz-adv-x="1565" 
d="M1427 0h-378v1489h378v-1489zM598 1083q0 -20 2 -30h322v-287h-322v-766h-381v766h-184v287h184v34q0 219 104 308.5t363 89.5h236v-262h-11q-59 4 -84 4q-122 0 -175.5 -34t-53.5 -110z" />
    </font>
</defs>
</svg>
